<?xml version="1.0" standalone="yes"?>

<svg version="1.1" viewBox="0.0 0.0 905.8897637795276 187.4251968503937" fill="none" stroke="none" stroke-linecap="square" stroke-miterlimit="10" xmlns="http://www.w3.org/2000/svg" xmlns:xlink="http://www.w3.org/1999/xlink"><clipPath id="p.0"><path d="m0 0l905.8898 0l0 187.4252l-905.8898 0l0 -187.4252z" clip-rule="nonzero"></path></clipPath><g clip-path="url(#p.0)"><path fill="#000000" fill-opacity="0.0" d="m0 0l905.8898 0l0 187.4252l-905.8898 0z" fill-rule="nonzero"></path><path fill="#000000" fill-opacity="0.0" d="m206.95013 58.632545l189.00787 0l0 112.75591l-189.00787 0z" fill-rule="nonzero"></path><path stroke="#6d9eeb" stroke-width="2.0" stroke-linejoin="round" stroke-linecap="butt" d="m206.95013 58.632545l189.00787 0l0 112.75591l-189.00787 0z" fill-rule="nonzero"></path><path fill="#6d9eeb" d="m297.74802 64.31696l93.7323 0l0 101.385826l-93.7323 0z" fill-rule="nonzero"></path><path fill="#000000" fill-opacity="0.0" d="m12.391076 58.632545l189.00787 0l0 112.75591l-189.00787 0z" fill-rule="nonzero"></path><path stroke="#6d9eeb" stroke-width="2.0" stroke-linejoin="round" stroke-linecap="butt" d="m12.391076 58.632545l189.00787 0l0 112.75591l-189.00787 0z" fill-rule="nonzero"></path><path fill="#6d9eeb" d="m16.51181 64.6188l93.732285 0l0 101.385826l-93.732285 0z" fill-rule="nonzero"></path><path fill="#6d9eeb" d="m695.07965 39.24445l17.535706 0l0 17.71489l-17.535706 0z" fill-rule="nonzero"></path><path stroke="#000000" stroke-width="1.0" stroke-linejoin="round" stroke-linecap="butt" d="m695.07965 39.24445l17.535706 0l0 17.71489l-17.535706 0z" fill-rule="nonzero"></path><path fill="#000000" fill-opacity="0.0" d="m713.0893 29.455084l134.26996 0l0 37.21585l-134.26996 0z" fill-rule="nonzero"></path><path fill="#000000" d="m728.9643 45.78633l-6.15625 0l0 -1.0625l6.15625 0l0 1.0625zm0 2.828125l-6.15625 0l0 -1.078125l6.15625 0l0 1.078125zm5.611389 2.640625l0 -9.3125l3.203125 0q1.09375 0 1.65625 0.140625q0.8125 0.1875 1.375 0.671875q0.734375 0.609375 1.09375 1.578125q0.375 0.96875 0.375 2.21875q0 1.0625 -0.25 1.890625q-0.25 0.8125 -0.640625 1.34375q-0.390625 0.53125 -0.859375 0.84375q-0.453125 0.3125 -1.109375 0.46875q-0.640625 0.15625 -1.484375 0.15625l-3.359375 0zm1.234375 -1.09375l1.984375 0q0.921875 0 1.4375 -0.171875q0.53125 -0.171875 0.84375 -0.484375q0.4375 -0.4375 0.671875 -1.171875q0.25 -0.75 0.25 -1.796875q0 -1.46875 -0.484375 -2.25q-0.46875 -0.78125 -1.15625 -1.046875q-0.5 -0.1875 -1.59375 -0.1875l-1.953125 0l0 7.109375zm8.359497 1.09375l0 -9.3125l1.84375 0l2.203125 6.59375q0.3125 0.921875 0.453125 1.375q0.15625 -0.5 0.484375 -1.484375l2.234375 -6.484375l1.65625 0l0 9.3125l-1.1875 0l0 -7.78125l-2.703125 7.78125l-1.109375 0l-2.6875 -7.921875l0 7.921875l-1.1875 0zm11.149353 0l0 -9.3125l4.125 0q1.25 0 1.890625 0.265625q0.65625 0.25 1.046875 0.890625q0.390625 0.625 0.390625 1.390625q0 0.984375 -0.65625 1.671875q-0.640625 0.671875 -1.96875 0.859375q0.484375 0.234375 0.734375 0.46875q0.546875 0.484375 1.03125 1.234375l1.609375 2.53125l-1.546875 0l-1.234375 -1.9375q-0.53125 -0.84375 -0.890625 -1.28125q-0.34375 -0.4375 -0.625 -0.609375q-0.265625 -0.1875 -0.546875 -0.265625q-0.21875 -0.03125 -0.6875 -0.03125l-1.4375 0l0 4.125l-1.234375 0zm1.234375 -5.203125l2.65625 0q0.84375 0 1.3125 -0.171875q0.484375 -0.171875 0.71875 -0.546875q0.25 -0.390625 0.25 -0.84375q0 -0.65625 -0.484375 -1.078125q-0.46875 -0.4375 -1.5 -0.4375l-2.953125 0l0 3.078125zm12.734497 1.546875l0 -1.078125l3.9375 -0.015625l0 3.453125q-0.90625 0.71875 -1.875 1.09375q-0.953125 0.359375 -1.96875 0.359375q-1.375 0 -2.5 -0.578125q-1.125 -0.59375 -1.703125 -1.703125q-0.5625 -1.109375 -0.5625 -2.484375q0 -1.359375 0.5625 -2.53125q0.578125 -1.1875 1.640625 -1.75q1.078125 -0.578125 2.453125 -0.578125q1.015625 0 1.828125 0.328125q0.8125 0.328125 1.28125 0.921875q0.46875 0.578125 0.703125 1.515625l-1.109375 0.296875q-0.203125 -0.703125 -0.515625 -1.109375q-0.3125 -0.40625 -0.890625 -0.640625q-0.578125 -0.25 -1.28125 -0.25q-0.84375 0 -1.46875 0.265625q-0.609375 0.25 -0.984375 0.671875q-0.375 0.40625 -0.59375 0.90625q-0.34375 0.875 -0.34375 1.875q0 1.25 0.421875 2.09375q0.421875 0.828125 1.234375 1.234375q0.828125 0.40625 1.75 0.40625q0.796875 0 1.5625 -0.296875q0.765625 -0.3125 1.15625 -0.671875l0 -1.734375l-2.734375 0zm10.616943 3.65625l-1.0625 0l0 -9.3125l1.15625 0l0 3.328125q0.71875 -0.90625 1.84375 -0.90625q0.625 0 1.171875 0.25q0.5625 0.25 0.921875 0.703125q0.359375 0.453125 0.5625 1.09375q0.203125 0.640625 0.203125 1.375q0 1.734375 -0.859375 2.6875q-0.859375 0.9375 -2.0625 0.9375q-1.1875 0 -1.875 -1.0l0 0.84375zm-0.015625 -3.421875q0 1.21875 0.34375 1.75q0.53125 0.890625 1.453125 0.890625q0.75 0 1.296875 -0.65625q0.546875 -0.65625 0.546875 -1.9375q0 -1.328125 -0.53125 -1.953125q-0.515625 -0.625 -1.265625 -0.625q-0.75 0 -1.296875 0.65625q-0.546875 0.640625 -0.546875 1.875zm6.3499756 3.421875l0 -9.3125l1.140625 0l0 9.3125l-1.140625 0zm2.5704346 -3.375q0 -1.875 1.03125 -2.765625q0.875 -0.75 2.125 -0.75q1.390625 0 2.265625 0.90625q0.890625 0.90625 0.890625 2.515625q0 1.296875 -0.390625 2.046875q-0.390625 0.75 -1.140625 1.171875q-0.75 0.40625 -1.625 0.40625q-1.421875 0 -2.296875 -0.90625q-0.859375 -0.90625 -0.859375 -2.625zm1.171875 0q0 1.296875 0.5625 1.953125q0.5625 0.640625 1.421875 0.640625q0.84375 0 1.40625 -0.640625q0.578125 -0.65625 0.578125 -1.984375q0 -1.25 -0.578125 -1.890625q-0.5625 -0.65625 -1.40625 -0.65625q-0.859375 0 -1.421875 0.640625q-0.5625 0.640625 -0.5625 1.9375zm11.053101 0.90625l1.125 0.140625q-0.171875 1.171875 -0.9375 1.828125q-0.765625 0.65625 -1.859375 0.65625q-1.390625 0 -2.234375 -0.90625q-0.828125 -0.90625 -0.828125 -2.59375q0 -1.09375 0.359375 -1.90625q0.359375 -0.828125 1.09375 -1.234375q0.734375 -0.40625 1.609375 -0.40625q1.09375 0 1.796875 0.5625q0.703125 0.546875 0.890625 1.5625l-1.109375 0.171875q-0.15625 -0.671875 -0.5625 -1.015625q-0.390625 -0.34375 -0.96875 -0.34375q-0.859375 0 -1.40625 0.625q-0.53125 0.609375 -0.53125 1.953125q0 1.359375 0.515625 1.984375q0.515625 0.609375 1.359375 0.609375q0.671875 0 1.125 -0.40625q0.453125 -0.421875 0.5625 -1.28125zm2.2734375 2.46875l0 -9.3125l1.140625 0l0 5.3125l2.703125 -2.734375l1.484375 0l-2.578125 2.5l2.84375 4.234375l-1.40625 0l-2.234375 -3.453125l-0.8125 0.78125l0 2.671875l-1.140625 0z" fill-rule="nonzero"></path><path fill="#93c47d" d="m695.07965 70.45896l17.535706 0l0 17.714897l-17.535706 0z" fill-rule="nonzero"></path><path stroke="#000000" stroke-width="1.0" stroke-linejoin="round" stroke-linecap="butt" d="m695.07965 70.45896l17.535706 0l0 17.714897l-17.535706 0z" fill-rule="nonzero"></path><path fill="#000000" fill-opacity="0.0" d="m713.0893 60.66877l134.26996 0l0 37.21585l-134.26996 0z" fill-rule="nonzero"></path><path fill="#000000" d="m728.9643 77.00002l-6.15625 0l0 -1.0625l6.15625 0l0 1.0625zm0 2.828125l-6.15625 0l0 -1.078125l6.15625 0l0 1.078125zm5.736389 2.640625l0 -5.859375l-1.0 0l0 -0.875l1.0 0l0 -0.71875q0 -0.6875 0.125 -1.015625q0.171875 -0.4375 0.578125 -0.71875q0.421875 -0.28125 1.171875 -0.28125q0.484375 0 1.0625 0.125l-0.171875 0.984375q-0.359375 -0.0625 -0.671875 -0.0625q-0.515625 0 -0.734375 0.234375q-0.21875 0.21875 -0.21875 0.828125l0 0.625l1.3125 0l0 0.875l-1.3125 0l0 5.859375l-1.140625 0zm3.421753 0l0 -6.734375l1.03125 0l0 1.015625q0.390625 -0.71875 0.71875 -0.9375q0.34375 -0.234375 0.734375 -0.234375q0.578125 0 1.171875 0.359375l-0.390625 1.0625q-0.421875 -0.25 -0.828125 -0.25q-0.375 0 -0.6875 0.234375q-0.296875 0.21875 -0.421875 0.625q-0.1875 0.609375 -0.1875 1.328125l0 3.53125l-1.140625 0zm9.0633545 -2.171875l1.1875 0.140625q-0.28125 1.046875 -1.046875 1.625q-0.75 0.5625 -1.921875 0.5625q-1.484375 0 -2.359375 -0.90625q-0.859375 -0.921875 -0.859375 -2.5625q0 -1.703125 0.875 -2.640625q0.890625 -0.9375 2.28125 -0.9375q1.359375 0 2.203125 0.921875q0.859375 0.921875 0.859375 2.578125q0 0.109375 0 0.3125l-5.03125 0q0.0625 1.109375 0.625 1.703125q0.5625 0.59375 1.40625 0.59375q0.640625 0 1.078125 -0.328125q0.453125 -0.34375 0.703125 -1.0625zm-3.75 -1.84375l3.765625 0q-0.078125 -0.859375 -0.4375 -1.28125q-0.546875 -0.65625 -1.40625 -0.65625q-0.796875 0 -1.328125 0.53125q-0.53125 0.515625 -0.59375 1.40625zm11.162476 1.84375l1.1875 0.140625q-0.28125 1.046875 -1.046875 1.625q-0.75 0.5625 -1.921875 0.5625q-1.484375 0 -2.359375 -0.90625q-0.859375 -0.921875 -0.859375 -2.5625q0 -1.703125 0.875 -2.640625q0.890625 -0.9375 2.28125 -0.9375q1.359375 0 2.203125 0.921875q0.859375 0.921875 0.859375 2.578125q0 0.109375 0 0.3125l-5.03125 0q0.0625 1.109375 0.625 1.703125q0.5625 0.59375 1.40625 0.59375q0.640625 0 1.078125 -0.328125q0.453125 -0.34375 0.703125 -1.0625zm-3.75 -1.84375l3.765625 0q-0.078125 -0.859375 -0.4375 -1.28125q-0.546875 -0.65625 -1.40625 -0.65625q-0.796875 0 -1.328125 0.53125q-0.53125 0.515625 -0.59375 1.40625zm9.8029785 2.0l1.125 -0.171875q0.09375 0.671875 0.53125 1.046875q0.4375 0.359375 1.21875 0.359375q0.78125 0 1.15625 -0.3125q0.390625 -0.328125 0.390625 -0.765625q0 -0.390625 -0.34375 -0.609375q-0.234375 -0.15625 -1.171875 -0.390625q-1.25 -0.3125 -1.734375 -0.546875q-0.484375 -0.234375 -0.734375 -0.640625q-0.25 -0.40625 -0.25 -0.90625q0 -0.453125 0.203125 -0.828125q0.203125 -0.390625 0.5625 -0.640625q0.265625 -0.203125 0.71875 -0.328125q0.46875 -0.140625 1.0 -0.140625q0.78125 0 1.375 0.234375q0.609375 0.21875 0.890625 0.609375q0.296875 0.390625 0.40625 1.046875l-1.125 0.15625q-0.078125 -0.53125 -0.4375 -0.8125q-0.359375 -0.296875 -1.03125 -0.296875q-0.78125 0 -1.125 0.265625q-0.34375 0.25 -0.34375 0.609375q0 0.21875 0.140625 0.390625q0.140625 0.1875 0.4375 0.3125q0.171875 0.0625 1.015625 0.28125q1.21875 0.328125 1.6875 0.53125q0.484375 0.203125 0.75 0.609375q0.28125 0.390625 0.28125 0.96875q0 0.578125 -0.34375 1.078125q-0.328125 0.5 -0.953125 0.78125q-0.625 0.28125 -1.421875 0.28125q-1.3125 0 -2.0 -0.546875q-0.6875 -0.546875 -0.875 -1.625zm7.1171875 -5.96875l0 -1.328125l1.140625 0l0 1.328125l-1.140625 0zm0 7.984375l0 -6.734375l1.140625 0l0 6.734375l-1.140625 0zm5.4610596 -1.015625l0.15625 1.0q-0.484375 0.109375 -0.859375 0.109375q-0.625 0 -0.96875 -0.203125q-0.34375 -0.203125 -0.484375 -0.515625q-0.140625 -0.328125 -0.140625 -1.34375l0 -3.890625l-0.828125 0l0 -0.875l0.828125 0l0 -1.671875l1.140625 -0.6875l0 2.359375l1.15625 0l0 0.875l-1.15625 0l0 3.953125q0 0.484375 0.0625 0.625q0.0625 0.140625 0.1875 0.21875q0.140625 0.078125 0.390625 0.078125q0.203125 0 0.515625 -0.03125zm5.812378 -1.15625l1.1875 0.140625q-0.28125 1.046875 -1.046875 1.625q-0.75 0.5625 -1.921875 0.5625q-1.484375 0 -2.359375 -0.90625q-0.859375 -0.921875 -0.859375 -2.5625q0 -1.703125 0.875 -2.640625q0.890625 -0.9375 2.28125 -0.9375q1.359375 0 2.203125 0.921875q0.859375 0.921875 0.859375 2.578125q0 0.109375 0 0.3125l-5.03125 0q0.0625 1.109375 0.625 1.703125q0.5625 0.59375 1.40625 0.59375q0.640625 0 1.078125 -0.328125q0.453125 -0.34375 0.703125 -1.0625zm-3.75 -1.84375l3.765625 0q-0.078125 -0.859375 -0.4375 -1.28125q-0.546875 -0.65625 -1.40625 -0.65625q-0.796875 0 -1.328125 0.53125q-0.53125 0.515625 -0.59375 1.40625z" fill-rule="nonzero"></path><path fill="#e6b8af" d="m695.07965 101.67265l17.535706 0l0 17.71489l-17.535706 0z" fill-rule="nonzero"></path><path stroke="#000000" stroke-width="1.0" stroke-linejoin="round" stroke-linecap="butt" d="m695.07965 101.67265l17.535706 0l0 17.71489l-17.535706 0z" fill-rule="nonzero"></path><path fill="#000000" fill-opacity="0.0" d="m713.09076 91.88398l179.33044 0l0 37.215843l-179.33044 0z" fill-rule="nonzero"></path><path fill="#000000" d="m728.96576 108.215225l-6.15625 0l0 -1.0625l6.15625 0l0 1.0625zm0 2.828125l-6.15625 0l0 -1.078125l6.15625 0l0 1.078125zm5.470764 -5.34375l0 -1.328125l1.140625 0l0 1.328125l-1.140625 0zm0 7.984375l0 -6.734375l1.140625 0l0 6.734375l-1.140625 0zm2.9611206 0l0 -6.734375l1.03125 0l0 0.953125q0.734375 -1.109375 2.140625 -1.109375q0.609375 0 1.109375 0.21875q0.515625 0.21875 0.765625 0.578125q0.265625 0.34375 0.359375 0.84375q0.0625 0.3125 0.0625 1.109375l0 4.140625l-1.140625 0l0 -4.09375q0 -0.703125 -0.140625 -1.046875q-0.125 -0.34375 -0.46875 -0.546875q-0.328125 -0.21875 -0.78125 -0.21875q-0.734375 0 -1.265625 0.46875q-0.53125 0.453125 -0.53125 1.75l0 3.6875l-1.140625 0zm9.912476 -1.015625l0.15625 1.0q-0.484375 0.109375 -0.859375 0.109375q-0.625 0 -0.96875 -0.203125q-0.34375 -0.203125 -0.484375 -0.515625q-0.140625 -0.328125 -0.140625 -1.34375l0 -3.890625l-0.828125 0l0 -0.875l0.828125 0l0 -1.671875l1.140625 -0.6875l0 2.359375l1.15625 0l0 0.875l-1.15625 0l0 3.953125q0 0.484375 0.0625 0.625q0.0625 0.140625 0.1875 0.21875q0.140625 0.078125 0.390625 0.078125q0.203125 0 0.515625 -0.03125zm5.812317 -1.15625l1.1875 0.140625q-0.28125 1.046875 -1.046875 1.625q-0.75 0.5625 -1.921875 0.5625q-1.484375 0 -2.359375 -0.90625q-0.859375 -0.921875 -0.859375 -2.5625q0 -1.703125 0.875 -2.640625q0.890625 -0.9375 2.28125 -0.9375q1.359375 0 2.203125 0.921875q0.859375 0.921875 0.859375 2.578125q0 0.109375 0 0.3125l-5.03125 0q0.0625 1.109375 0.625 1.703125q0.5625 0.59375 1.40625 0.59375q0.640625 0 1.078125 -0.328125q0.453125 -0.34375 0.703125 -1.0625zm-3.75 -1.84375l3.765625 0q-0.078125 -0.859375 -0.4375 -1.28125q-0.546875 -0.65625 -1.40625 -0.65625q-0.796875 0 -1.328125 0.53125q-0.53125 0.515625 -0.59375 1.40625zm6.5374756 4.015625l0 -6.734375l1.03125 0l0 1.015625q0.390625 -0.71875 0.71875 -0.9375q0.34375 -0.234375 0.734375 -0.234375q0.578125 0 1.171875 0.359375l-0.390625 1.0625q-0.421875 -0.25 -0.828125 -0.25q-0.375 0 -0.6875 0.234375q-0.296875 0.21875 -0.421875 0.625q-0.1875 0.609375 -0.1875 1.328125l0 3.53125l-1.140625 0zm4.4540405 0l0 -6.734375l1.03125 0l0 0.953125q0.734375 -1.109375 2.140625 -1.109375q0.609375 0 1.109375 0.21875q0.515625 0.21875 0.765625 0.578125q0.265625 0.34375 0.359375 0.84375q0.0625 0.3125 0.0625 1.109375l0 4.140625l-1.140625 0l0 -4.09375q0 -0.703125 -0.140625 -1.046875q-0.125 -0.34375 -0.46875 -0.546875q-0.328125 -0.21875 -0.78125 -0.21875q-0.734375 0 -1.265625 0.46875q-0.53125 0.453125 -0.53125 1.75l0 3.6875l-1.140625 0zm11.803101 -0.828125q-0.625 0.53125 -1.21875 0.765625q-0.578125 0.21875 -1.25 0.21875q-1.125 0 -1.71875 -0.546875q-0.59375 -0.546875 -0.59375 -1.390625q0 -0.484375 0.21875 -0.890625q0.234375 -0.421875 0.59375 -0.671875q0.375 -0.25 0.828125 -0.375q0.328125 -0.078125 1.015625 -0.171875q1.375 -0.15625 2.03125 -0.390625q0.015625 -0.234375 0.015625 -0.296875q0 -0.703125 -0.328125 -0.984375q-0.4375 -0.390625 -1.296875 -0.390625q-0.8125 0 -1.203125 0.28125q-0.375 0.28125 -0.5625 1.0l-1.109375 -0.140625q0.140625 -0.71875 0.484375 -1.15625q0.359375 -0.453125 1.015625 -0.6875q0.671875 -0.234375 1.53125 -0.234375q0.875 0 1.40625 0.203125q0.546875 0.203125 0.796875 0.515625q0.25 0.296875 0.359375 0.765625q0.046875 0.296875 0.046875 1.0625l0 1.515625q0 1.59375 0.078125 2.015625q0.078125 0.421875 0.28125 0.8125l-1.1875 0q-0.171875 -0.359375 -0.234375 -0.828125zm-0.09375 -2.5625q-0.625 0.265625 -1.859375 0.4375q-0.703125 0.109375 -1.0 0.234375q-0.296875 0.125 -0.453125 0.375q-0.15625 0.234375 -0.15625 0.53125q0 0.453125 0.34375 0.765625q0.34375 0.296875 1.015625 0.296875q0.65625 0 1.171875 -0.28125q0.515625 -0.296875 0.765625 -0.796875q0.171875 -0.375 0.171875 -1.140625l0 -0.421875zm3.0843506 3.390625l0 -9.3125l1.140625 0l0 9.3125l-1.140625 0zm6.8828125 0l0 -9.3125l1.21875 0l0 3.828125l4.84375 0l0 -3.828125l1.234375 0l0 9.3125l-1.234375 0l0 -4.390625l-4.84375 0l0 4.390625l-1.21875 0zm13.828247 -0.828125q-0.625 0.53125 -1.21875 0.765625q-0.578125 0.21875 -1.25 0.21875q-1.125 0 -1.71875 -0.546875q-0.59375 -0.546875 -0.59375 -1.390625q0 -0.484375 0.21875 -0.890625q0.234375 -0.421875 0.59375 -0.671875q0.375 -0.25 0.828125 -0.375q0.328125 -0.078125 1.015625 -0.171875q1.375 -0.15625 2.03125 -0.390625q0.015625 -0.234375 0.015625 -0.296875q0 -0.703125 -0.328125 -0.984375q-0.4375 -0.390625 -1.296875 -0.390625q-0.8125 0 -1.203125 0.28125q-0.375 0.28125 -0.5625 1.0l-1.109375 -0.140625q0.140625 -0.71875 0.484375 -1.15625q0.359375 -0.453125 1.015625 -0.6875q0.671875 -0.234375 1.53125 -0.234375q0.875 0 1.40625 0.203125q0.546875 0.203125 0.796875 0.515625q0.25 0.296875 0.359375 0.765625q0.046875 0.296875 0.046875 1.0625l0 1.515625q0 1.59375 0.078125 2.015625q0.078125 0.421875 0.28125 0.8125l-1.1875 0q-0.171875 -0.359375 -0.234375 -0.828125zm-0.09375 -2.5625q-0.625 0.265625 -1.859375 0.4375q-0.703125 0.109375 -1.0 0.234375q-0.296875 0.125 -0.453125 0.375q-0.15625 0.234375 -0.15625 0.53125q0 0.453125 0.34375 0.765625q0.34375 0.296875 1.015625 0.296875q0.65625 0 1.171875 -0.28125q0.515625 -0.296875 0.765625 -0.796875q0.171875 -0.375 0.171875 -1.140625l0 -0.421875zm3.1156006 3.390625l0 -6.734375l1.015625 0l0 0.9375q0.328125 -0.5 0.84375 -0.796875q0.53125 -0.296875 1.203125 -0.296875q0.75 0 1.21875 0.3125q0.484375 0.3125 0.6875 0.859375q0.796875 -1.171875 2.078125 -1.171875q1.0 0 1.53125 0.5625q0.546875 0.546875 0.546875 1.703125l0 4.625l-1.125 0l0 -4.25q0 -0.6875 -0.109375 -0.984375q-0.109375 -0.296875 -0.40625 -0.484375q-0.296875 -0.1875 -0.6875 -0.1875q-0.71875 0 -1.1875 0.484375q-0.46875 0.46875 -0.46875 1.5l0 3.921875l-1.140625 0l0 -4.375q0 -0.765625 -0.28125 -1.140625q-0.28125 -0.390625 -0.90625 -0.390625q-0.484375 0 -0.890625 0.265625q-0.40625 0.25 -0.59375 0.734375q-0.1875 0.484375 -0.1875 1.40625l0 3.5l-1.140625 0zm11.102478 -7.984375l0 -1.328125l1.140625 0l0 1.328125l-1.140625 0zm0 7.984375l0 -6.734375l1.140625 0l0 6.734375l-1.140625 0zm2.9298096 0l0 -9.3125l1.140625 0l0 9.3125l-1.140625 0zm5.4923706 -1.015625l0.15625 1.0q-0.484375 0.109375 -0.859375 0.109375q-0.625 0 -0.96875 -0.203125q-0.34375 -0.203125 -0.484375 -0.515625q-0.140625 -0.328125 -0.140625 -1.34375l0 -3.890625l-0.828125 0l0 -0.875l0.828125 0l0 -1.671875l1.140625 -0.6875l0 2.359375l1.15625 0l0 0.875l-1.15625 0l0 3.953125q0 0.484375 0.0625 0.625q0.0625 0.140625 0.1875 0.21875q0.140625 0.078125 0.390625 0.078125q0.203125 0 0.515625 -0.03125zm0.7810669 -2.359375q0 -1.875 1.03125 -2.765625q0.875 -0.75 2.125 -0.75q1.390625 0 2.265625 0.90625q0.890625 0.90625 0.890625 2.515625q0 1.296875 -0.390625 2.046875q-0.390625 0.75 -1.140625 1.171875q-0.75 0.40625 -1.625 0.40625q-1.421875 0 -2.296875 -0.90625q-0.859375 -0.90625 -0.859375 -2.625zm1.171875 0q0 1.296875 0.5625 1.953125q0.5625 0.640625 1.421875 0.640625q0.84375 0 1.40625 -0.640625q0.578125 -0.65625 0.578125 -1.984375q0 -1.25 -0.578125 -1.890625q-0.5625 -0.65625 -1.40625 -0.65625q-0.859375 0 -1.421875 0.640625q-0.5625 0.640625 -0.5625 1.9375zm6.6624756 3.375l0 -6.734375l1.03125 0l0 0.953125q0.734375 -1.109375 2.140625 -1.109375q0.609375 0 1.109375 0.21875q0.515625 0.21875 0.765625 0.578125q0.265625 0.34375 0.359375 0.84375q0.0625 0.3125 0.0625 1.109375l0 4.140625l-1.140625 0l0 -4.09375q0 -0.703125 -0.140625 -1.046875q-0.125 -0.34375 -0.46875 -0.546875q-0.328125 -0.21875 -0.78125 -0.21875q-0.734375 0 -1.265625 0.46875q-0.53125 0.453125 -0.53125 1.75l0 3.6875l-1.140625 0zm7.4124756 -7.984375l0 -1.328125l1.140625 0l0 1.328125l-1.140625 0zm0 7.984375l0 -6.734375l1.140625 0l0 6.734375l-1.140625 0zm7.3517456 -0.828125q-0.625 0.53125 -1.21875 0.765625q-0.578125 0.21875 -1.25 0.21875q-1.125 0 -1.71875 -0.546875q-0.59375 -0.546875 -0.59375 -1.390625q0 -0.484375 0.21875 -0.890625q0.234375 -0.421875 0.59375 -0.671875q0.375 -0.25 0.828125 -0.375q0.328125 -0.078125 1.015625 -0.171875q1.375 -0.15625 2.03125 -0.390625q0.015625 -0.234375 0.015625 -0.296875q0 -0.703125 -0.328125 -0.984375q-0.4375 -0.390625 -1.296875 -0.390625q-0.8125 0 -1.203125 0.28125q-0.375 0.28125 -0.5625 1.0l-1.109375 -0.140625q0.140625 -0.71875 0.484375 -1.15625q0.359375 -0.453125 1.015625 -0.6875q0.671875 -0.234375 1.53125 -0.234375q0.875 0 1.40625 0.203125q0.546875 0.203125 0.796875 0.515625q0.25 0.296875 0.359375 0.765625q0.046875 0.296875 0.046875 1.0625l0 1.515625q0 1.59375 0.078125 2.015625q0.078125 0.421875 0.28125 0.8125l-1.1875 0q-0.171875 -0.359375 -0.234375 -0.828125zm-0.09375 -2.5625q-0.625 0.265625 -1.859375 0.4375q-0.703125 0.109375 -1.0 0.234375q-0.296875 0.125 -0.453125 0.375q-0.15625 0.234375 -0.15625 0.53125q0 0.453125 0.34375 0.765625q0.34375 0.296875 1.015625 0.296875q0.65625 0 1.171875 -0.28125q0.515625 -0.296875 0.765625 -0.796875q0.171875 -0.375 0.171875 -1.140625l0 -0.421875zm3.1156006 3.390625l0 -6.734375l1.03125 0l0 0.953125q0.734375 -1.109375 2.140625 -1.109375q0.609375 0 1.109375 0.21875q0.515625 0.21875 0.765625 0.578125q0.265625 0.34375 0.359375 0.84375q0.0625 0.3125 0.0625 1.109375l0 4.140625l-1.140625 0l0 -4.09375q0 -0.703125 -0.140625 -1.046875q-0.125 -0.34375 -0.46875 -0.546875q-0.328125 -0.21875 -0.78125 -0.21875q-0.734375 0 -1.265625 0.46875q-0.53125 0.453125 -0.53125 1.75l0 3.6875l-1.140625 0z" fill-rule="nonzero"></path><path fill="#ffe599" d="m695.07965 135.27383l17.535706 0l0 17.71489l-17.535706 0z" fill-rule="nonzero"></path><path stroke="#000000" stroke-width="1.0" stroke-linejoin="round" stroke-linecap="butt" d="m695.07965 135.27383l17.535706 0l0 17.71489l-17.535706 0z" fill-rule="nonzero"></path><path fill="#000000" fill-opacity="0.0" d="m713.09076 125.48516l203.28253 0l0 37.21586l-203.28253 0z" fill-rule="nonzero"></path><path fill="#000000" d="m728.96576 141.8164l-6.15625 0l0 -1.0625l6.15625 0l0 1.0625zm0 2.828125l-6.15625 0l0 -1.078125l6.15625 0l0 1.078125zm5.470764 -5.34375l0 -1.328125l1.140625 0l0 1.328125l-1.140625 0zm0 7.984375l0 -6.734375l1.140625 0l0 6.734375l-1.140625 0zm2.9611206 0l0 -6.734375l1.03125 0l0 0.953125q0.734375 -1.109375 2.140625 -1.109375q0.609375 0 1.109375 0.21875q0.515625 0.21875 0.765625 0.578125q0.265625 0.34375 0.359375 0.84375q0.0625 0.3125 0.0625 1.109375l0 4.140625l-1.140625 0l0 -4.09375q0 -0.703125 -0.140625 -1.046875q-0.125 -0.34375 -0.46875 -0.546875q-0.328125 -0.21875 -0.78125 -0.21875q-0.734375 0 -1.265625 0.46875q-0.53125 0.453125 -0.53125 1.75l0 3.6875l-1.140625 0zm9.912476 -1.015625l0.15625 1.0q-0.484375 0.109375 -0.859375 0.109375q-0.625 0 -0.96875 -0.203125q-0.34375 -0.203125 -0.484375 -0.515625q-0.140625 -0.328125 -0.140625 -1.34375l0 -3.890625l-0.828125 0l0 -0.875l0.828125 0l0 -1.671875l1.140625 -0.6875l0 2.359375l1.15625 0l0 0.875l-1.15625 0l0 3.953125q0 0.484375 0.0625 0.625q0.0625 0.140625 0.1875 0.21875q0.140625 0.078125 0.390625 0.078125q0.203125 0 0.515625 -0.03125zm5.812317 -1.15625l1.1875 0.140625q-0.28125 1.046875 -1.046875 1.625q-0.75 0.5625 -1.921875 0.5625q-1.484375 0 -2.359375 -0.90625q-0.859375 -0.921875 -0.859375 -2.5625q0 -1.703125 0.875 -2.640625q0.890625 -0.9375 2.28125 -0.9375q1.359375 0 2.203125 0.921875q0.859375 0.921875 0.859375 2.578125q0 0.109375 0 0.3125l-5.03125 0q0.0625 1.109375 0.625 1.703125q0.5625 0.59375 1.40625 0.59375q0.640625 0 1.078125 -0.328125q0.453125 -0.34375 0.703125 -1.0625zm-3.75 -1.84375l3.765625 0q-0.078125 -0.859375 -0.4375 -1.28125q-0.546875 -0.65625 -1.40625 -0.65625q-0.796875 0 -1.328125 0.53125q-0.53125 0.515625 -0.59375 1.40625zm6.5374756 4.015625l0 -6.734375l1.03125 0l0 1.015625q0.390625 -0.71875 0.71875 -0.9375q0.34375 -0.234375 0.734375 -0.234375q0.578125 0 1.171875 0.359375l-0.390625 1.0625q-0.421875 -0.25 -0.828125 -0.25q-0.375 0 -0.6875 0.234375q-0.296875 0.21875 -0.421875 0.625q-0.1875 0.609375 -0.1875 1.328125l0 3.53125l-1.140625 0zm8.844666 -0.828125q-0.625 0.53125 -1.21875 0.765625q-0.578125 0.21875 -1.25 0.21875q-1.125 0 -1.71875 -0.546875q-0.59375 -0.546875 -0.59375 -1.390625q0 -0.484375 0.21875 -0.890625q0.234375 -0.421875 0.59375 -0.671875q0.375 -0.25 0.828125 -0.375q0.328125 -0.078125 1.015625 -0.171875q1.375 -0.15625 2.03125 -0.390625q0.015625 -0.234375 0.015625 -0.296875q0 -0.703125 -0.328125 -0.984375q-0.4375 -0.390625 -1.296875 -0.390625q-0.8125 0 -1.203125 0.28125q-0.375 0.28125 -0.5625 1.0l-1.109375 -0.140625q0.140625 -0.71875 0.484375 -1.15625q0.359375 -0.453125 1.015625 -0.6875q0.671875 -0.234375 1.53125 -0.234375q0.875 0 1.40625 0.203125q0.546875 0.203125 0.796875 0.515625q0.25 0.296875 0.359375 0.765625q0.046875 0.296875 0.046875 1.0625l0 1.515625q0 1.59375 0.078125 2.015625q0.078125 0.421875 0.28125 0.8125l-1.1875 0q-0.171875 -0.359375 -0.234375 -0.828125zm-0.09375 -2.5625q-0.625 0.265625 -1.859375 0.4375q-0.703125 0.109375 -1.0 0.234375q-0.296875 0.125 -0.453125 0.375q-0.15625 0.234375 -0.15625 0.53125q0 0.453125 0.34375 0.765625q0.34375 0.296875 1.015625 0.296875q0.65625 0 1.171875 -0.28125q0.515625 -0.296875 0.765625 -0.796875q0.171875 -0.375 0.171875 -1.140625l0 -0.421875zm7.5062256 0.921875l1.125 0.140625q-0.171875 1.171875 -0.9375 1.828125q-0.765625 0.65625 -1.859375 0.65625q-1.390625 0 -2.234375 -0.90625q-0.828125 -0.90625 -0.828125 -2.59375q0 -1.09375 0.359375 -1.90625q0.359375 -0.828125 1.09375 -1.234375q0.734375 -0.40625 1.609375 -0.40625q1.09375 0 1.796875 0.5625q0.703125 0.546875 0.890625 1.5625l-1.109375 0.171875q-0.15625 -0.671875 -0.5625 -1.015625q-0.390625 -0.34375 -0.96875 -0.34375q-0.859375 0 -1.40625 0.625q-0.53125 0.609375 -0.53125 1.953125q0 1.359375 0.515625 1.984375q0.515625 0.609375 1.359375 0.609375q0.671875 0 1.125 -0.40625q0.453125 -0.421875 0.5625 -1.28125zm4.7734375 1.453125l0.15625 1.0q-0.484375 0.109375 -0.859375 0.109375q-0.625 0 -0.96875 -0.203125q-0.34375 -0.203125 -0.484375 -0.515625q-0.140625 -0.328125 -0.140625 -1.34375l0 -3.890625l-0.828125 0l0 -0.875l0.828125 0l0 -1.671875l1.140625 -0.6875l0 2.359375l1.15625 0l0 0.875l-1.15625 0l0 3.953125q0 0.484375 0.0625 0.625q0.0625 0.140625 0.1875 0.21875q0.140625 0.078125 0.390625 0.078125q0.203125 0 0.515625 -0.03125zm1.2029419 -6.96875l0 -1.328125l1.140625 0l0 1.328125l-1.140625 0zm0 7.984375l0 -6.734375l1.140625 0l0 6.734375l-1.140625 0zm2.5392456 -3.375q0 -1.875 1.03125 -2.765625q0.875 -0.75 2.125 -0.75q1.390625 0 2.265625 0.90625q0.890625 0.90625 0.890625 2.515625q0 1.296875 -0.390625 2.046875q-0.390625 0.75 -1.140625 1.171875q-0.75 0.40625 -1.625 0.40625q-1.421875 0 -2.296875 -0.90625q-0.859375 -0.90625 -0.859375 -2.625zm1.171875 0q0 1.296875 0.5625 1.953125q0.5625 0.640625 1.421875 0.640625q0.84375 0 1.40625 -0.640625q0.578125 -0.65625 0.578125 -1.984375q0 -1.25 -0.578125 -1.890625q-0.5625 -0.65625 -1.40625 -0.65625q-0.859375 0 -1.421875 0.640625q-0.5625 0.640625 -0.5625 1.9375zm6.6624756 3.375l0 -6.734375l1.03125 0l0 0.953125q0.734375 -1.109375 2.140625 -1.109375q0.609375 0 1.109375 0.21875q0.515625 0.21875 0.765625 0.578125q0.265625 0.34375 0.359375 0.84375q0.0625 0.3125 0.0625 1.109375l0 4.140625l-1.140625 0l0 -4.09375q0 -0.703125 -0.140625 -1.046875q-0.125 -0.34375 -0.46875 -0.546875q-0.328125 -0.21875 -0.78125 -0.21875q-0.734375 0 -1.265625 0.46875q-0.53125 0.453125 -0.53125 1.75l0 3.6875l-1.140625 0zm11.3029785 0l0 -9.3125l1.21875 0l0 3.828125l4.84375 0l0 -3.828125l1.234375 0l0 9.3125l-1.234375 0l0 -4.390625l-4.84375 0l0 4.390625l-1.21875 0zm13.828247 -0.828125q-0.625 0.53125 -1.21875 0.765625q-0.578125 0.21875 -1.25 0.21875q-1.125 0 -1.71875 -0.546875q-0.59375 -0.546875 -0.59375 -1.390625q0 -0.484375 0.21875 -0.890625q0.234375 -0.421875 0.59375 -0.671875q0.375 -0.25 0.828125 -0.375q0.328125 -0.078125 1.015625 -0.171875q1.375 -0.15625 2.03125 -0.390625q0.015625 -0.234375 0.015625 -0.296875q0 -0.703125 -0.328125 -0.984375q-0.4375 -0.390625 -1.296875 -0.390625q-0.8125 0 -1.203125 0.28125q-0.375 0.28125 -0.5625 1.0l-1.109375 -0.140625q0.140625 -0.71875 0.484375 -1.15625q0.359375 -0.453125 1.015625 -0.6875q0.671875 -0.234375 1.53125 -0.234375q0.875 0 1.40625 0.203125q0.546875 0.203125 0.796875 0.515625q0.25 0.296875 0.359375 0.765625q0.046875 0.296875 0.046875 1.0625l0 1.515625q0 1.59375 0.078125 2.015625q0.078125 0.421875 0.28125 0.8125l-1.1875 0q-0.171875 -0.359375 -0.234375 -0.828125zm-0.09375 -2.5625q-0.625 0.265625 -1.859375 0.4375q-0.703125 0.109375 -1.0 0.234375q-0.296875 0.125 -0.453125 0.375q-0.15625 0.234375 -0.15625 0.53125q0 0.453125 0.34375 0.765625q0.34375 0.296875 1.015625 0.296875q0.65625 0 1.171875 -0.28125q0.515625 -0.296875 0.765625 -0.796875q0.171875 -0.375 0.171875 -1.140625l0 -0.421875zm3.1156006 3.390625l0 -6.734375l1.015625 0l0 0.9375q0.328125 -0.5 0.84375 -0.796875q0.53125 -0.296875 1.203125 -0.296875q0.75 0 1.21875 0.3125q0.484375 0.3125 0.6875 0.859375q0.796875 -1.171875 2.078125 -1.171875q1.0 0 1.53125 0.5625q0.546875 0.546875 0.546875 1.703125l0 4.625l-1.125 0l0 -4.25q0 -0.6875 -0.109375 -0.984375q-0.109375 -0.296875 -0.40625 -0.484375q-0.296875 -0.1875 -0.6875 -0.1875q-0.71875 0 -1.1875 0.484375q-0.46875 0.46875 -0.46875 1.5l0 3.921875l-1.140625 0l0 -4.375q0 -0.765625 -0.28125 -1.140625q-0.28125 -0.390625 -0.90625 -0.390625q-0.484375 0 -0.890625 0.265625q-0.40625 0.25 -0.59375 0.734375q-0.1875 0.484375 -0.1875 1.40625l0 3.5l-1.140625 0zm11.102417 -7.984375l0 -1.328125l1.140625 0l0 1.328125l-1.140625 0zm0 7.984375l0 -6.734375l1.140625 0l0 6.734375l-1.140625 0zm2.9298706 0l0 -9.3125l1.140625 0l0 9.3125l-1.140625 0zm5.4923096 -1.015625l0.15625 1.0q-0.484375 0.109375 -0.859375 0.109375q-0.625 0 -0.96875 -0.203125q-0.34375 -0.203125 -0.484375 -0.515625q-0.140625 -0.328125 -0.140625 -1.34375l0 -3.890625l-0.828125 0l0 -0.875l0.828125 0l0 -1.671875l1.140625 -0.6875l0 2.359375l1.15625 0l0 0.875l-1.15625 0l0 3.953125q0 0.484375 0.0625 0.625q0.0625 0.140625 0.1875 0.21875q0.140625 0.078125 0.390625 0.078125q0.203125 0 0.515625 -0.03125zm0.7811279 -2.359375q0 -1.875 1.03125 -2.765625q0.875 -0.75 2.125 -0.75q1.390625 0 2.265625 0.90625q0.890625 0.90625 0.890625 2.515625q0 1.296875 -0.390625 2.046875q-0.390625 0.75 -1.140625 1.171875q-0.75 0.40625 -1.625 0.40625q-1.421875 0 -2.296875 -0.90625q-0.859375 -0.90625 -0.859375 -2.625zm1.171875 0q0 1.296875 0.5625 1.953125q0.5625 0.640625 1.421875 0.640625q0.84375 0 1.40625 -0.640625q0.578125 -0.65625 0.578125 -1.984375q0 -1.25 -0.578125 -1.890625q-0.5625 -0.65625 -1.40625 -0.65625q-0.859375 0 -1.421875 0.640625q-0.5625 0.640625 -0.5625 1.9375zm6.6624756 3.375l0 -6.734375l1.03125 0l0 0.953125q0.734375 -1.109375 2.140625 -1.109375q0.609375 0 1.109375 0.21875q0.515625 0.21875 0.765625 0.578125q0.265625 0.34375 0.359375 0.84375q0.0625 0.3125 0.0625 1.109375l0 4.140625l-1.140625 0l0 -4.09375q0 -0.703125 -0.140625 -1.046875q-0.125 -0.34375 -0.46875 -0.546875q-0.328125 -0.21875 -0.78125 -0.21875q-0.734375 0 -1.265625 0.46875q-0.53125 0.453125 -0.53125 1.75l0 3.6875l-1.140625 0zm7.4124756 -7.984375l0 -1.328125l1.140625 0l0 1.328125l-1.140625 0zm0 7.984375l0 -6.734375l1.140625 0l0 6.734375l-1.140625 0zm7.3517456 -0.828125q-0.625 0.53125 -1.21875 0.765625q-0.578125 0.21875 -1.25 0.21875q-1.125 0 -1.71875 -0.546875q-0.59375 -0.546875 -0.59375 -1.390625q0 -0.484375 0.21875 -0.890625q0.234375 -0.421875 0.59375 -0.671875q0.375 -0.25 0.828125 -0.375q0.328125 -0.078125 1.015625 -0.171875q1.375 -0.15625 2.03125 -0.390625q0.015625 -0.234375 0.015625 -0.296875q0 -0.703125 -0.328125 -0.984375q-0.4375 -0.390625 -1.296875 -0.390625q-0.8125 0 -1.203125 0.28125q-0.375 0.28125 -0.5625 1.0l-1.109375 -0.140625q0.140625 -0.71875 0.484375 -1.15625q0.359375 -0.453125 1.015625 -0.6875q0.671875 -0.234375 1.53125 -0.234375q0.875 0 1.40625 0.203125q0.546875 0.203125 0.796875 0.515625q0.25 0.296875 0.359375 0.765625q0.046875 0.296875 0.046875 1.0625l0 1.515625q0 1.59375 0.078125 2.015625q0.078125 0.421875 0.28125 0.8125l-1.1875 0q-0.171875 -0.359375 -0.234375 -0.828125zm-0.09375 -2.5625q-0.625 0.265625 -1.859375 0.4375q-0.703125 0.109375 -1.0 0.234375q-0.296875 0.125 -0.453125 0.375q-0.15625 0.234375 -0.15625 0.53125q0 0.453125 0.34375 0.765625q0.34375 0.296875 1.015625 0.296875q0.65625 0 1.171875 -0.28125q0.515625 -0.296875 0.765625 -0.796875q0.171875 -0.375 0.171875 -1.140625l0 -0.421875zm3.1156006 3.390625l0 -6.734375l1.03125 0l0 0.953125q0.734375 -1.109375 2.140625 -1.109375q0.609375 0 1.109375 0.21875q0.515625 0.21875 0.765625 0.578125q0.265625 0.34375 0.359375 0.84375q0.0625 0.3125 0.0625 1.109375l0 4.140625l-1.140625 0l0 -4.09375q0 -0.703125 -0.140625 -1.046875q-0.125 -0.34375 -0.46875 -0.546875q-0.328125 -0.21875 -0.78125 -0.21875q-0.734375 0 -1.265625 0.46875q-0.53125 0.453125 -0.53125 1.75l0 3.6875l-1.140625 0z" fill-rule="nonzero"></path><path fill="#e6b8af" d="m95.44517 145.2637l0 0c0 -7.8142395 6.3346863 -14.148926 14.148926 -14.148926l0 0c3.7525253 0 7.3513565 1.4906769 10.004799 4.1441193c2.6534348 2.6534424 4.144127 6.2522736 4.144127 10.0048065l0 0c0 7.8142395 -6.334694 14.148926 -14.148926 14.148926l0 0c-7.8142395 0 -14.148926 -6.3346863 -14.148926 -14.148926z" fill-rule="nonzero"></path><path fill="#000000" fill-opacity="0.0" d="m90.04747 122.9895l42.36133 0l0 24.928482l-42.36133 0z" fill-rule="nonzero"></path><path fill="#000000" d="m103.42247 142.25575l0 3.28125q0 0.8125 0.09375 1.015625q0.09375 0.203125 0.34375 0.359375q0.265625 0.140625 0.71875 0.140625l0.34375 0l0 0.296875l-5.53125 0l0 -0.296875l0.34375 0q0.46875 0 0.75 -0.15625q0.203125 -0.109375 0.3125 -0.375q0.078125 -0.1875 0.078125 -0.984375l0 -6.96875q0 -0.8125 -0.09375 -1.015625q-0.078125 -0.203125 -0.34375 -0.359375q-0.25 -0.15625 -0.703125 -0.15625l-0.34375 0l0 -0.28125l5.53125 0l0 0.28125l-0.34375 0q-0.46875 0 -0.75 0.171875q-0.203125 0.109375 -0.3125 0.375q-0.09375 0.1875 -0.09375 0.984375l0 3.0l3.75 0l0 -3.0q0 -0.8125 -0.09375 -1.015625q-0.078125 -0.203125 -0.34375 -0.359375q-0.265625 -0.15625 -0.71875 -0.15625l-0.34375 0l0 -0.28125l5.53125 0l0 0.28125l-0.34375 0q-0.46875 0 -0.734375 0.171875q-0.203125 0.109375 -0.328125 0.375q-0.078125 0.1875 -0.078125 0.984375l0 6.96875q0 0.8125 0.078125 1.015625q0.09375 0.203125 0.359375 0.359375q0.265625 0.140625 0.703125 0.140625l0.34375 0l0 0.296875l-5.53125 0l0 -0.296875l0.34375 0q0.46875 0 0.75 -0.15625q0.203125 -0.109375 0.3125 -0.375q0.09375 -0.1875 0.09375 -0.984375l0 -3.28125l-3.75 0z" fill-rule="nonzero"></path><path fill="#000000" d="m114.49278 146.49013l0 2.953125l0.140625 0q0.6875 0 1.0 -0.421875q0.3125 -0.4375 0.40625 -1.296875l0.203125 0l0 3.8125l-0.203125 0q-0.0625 -0.609375 -0.28125 -1.0q-0.203125 -0.40625 -0.484375 -0.546875q-0.265625 -0.140625 -0.78125 -0.140625l0 2.0625q0 0.59375 0.046875 0.734375q0.046875 0.125 0.1875 0.21875q0.140625 0.078125 0.453125 0.078125l0.4375 0q1.015625 0 1.625 -0.46875q0.625 -0.46875 0.890625 -1.4375l0.203125 0l-0.328125 2.3125l-6.296875 0l0 -0.203125l0.25 0q0.3125 0 0.5 -0.109375q0.140625 -0.078125 0.21875 -0.25q0.0625 -0.140625 0.0625 -0.6875l0 -4.78125q0 -0.5 -0.03125 -0.609375q-0.046875 -0.1875 -0.203125 -0.296875q-0.203125 -0.140625 -0.546875 -0.140625l-0.25 0l0 -0.203125l6.09375 0l0 2.15625l-0.203125 0q-0.15625 -0.796875 -0.4375 -1.140625q-0.28125 -0.34375 -0.796875 -0.5q-0.296875 -0.09375 -1.125 -0.09375l-0.75 0z" fill-rule="nonzero"></path><path fill="#93c47d" d="m414.78625 99.1349l0 0c0 -13.002609 10.54068 -23.543312 23.543304 -23.543312l0 0c6.244049 0 12.232391 2.4804535 16.647614 6.8956757c4.415222 4.41523 6.895691 10.403557 6.895691 16.647636l0 0c0 13.002609 -10.54071 23.543304 -23.543304 23.543304l0 0c-13.0026245 0 -23.543304 -10.540695 -23.543304 -23.543304z" fill-rule="nonzero"></path><path fill="#e6b8af" d="m423.8848 99.44611l0 0c0 -7.8142395 6.3346863 -14.148926 14.148926 -14.148926l0 0c3.752533 0 7.3513794 1.4906845 10.004791 4.144127c2.6534424 2.6534348 4.1441345 6.252266 4.1441345 10.004799l0 0c0 7.814232 -6.3346863 14.148926 -14.148926 14.148926l0 0c-7.8142395 0 -14.148926 -6.334694 -14.148926 -14.148926z" fill-rule="nonzero"></path><path fill="#000000" fill-opacity="0.0" d="m418.4853 77.1706l47.09796 0l0 24.928482l-47.09796 0z" fill-rule="nonzero"></path><path fill="#000000" d="m431.8603 96.43685l0 3.28125q0 0.8125 0.09375 1.015625q0.09375 0.203125 0.34375 0.359375q0.265625 0.140625 0.71875 0.140625l0.34375 0l0 0.296875l-5.53125 0l0 -0.296875l0.34375 0q0.46875 0 0.75 -0.15625q0.203125 -0.109375 0.3125 -0.375q0.078125 -0.1875 0.078125 -0.984375l0 -6.96875q0 -0.8125 -0.09375 -1.015625q-0.078125 -0.203125 -0.34375 -0.359375q-0.25 -0.15625 -0.703125 -0.15625l-0.34375 0l0 -0.28125l5.53125 0l0 0.28125l-0.34375 0q-0.46875 0 -0.75 0.171875q-0.203125 0.109375 -0.3125 0.375q-0.09375 0.1875 -0.09375 0.984375l0 3.0l3.75 0l0 -3.0q0 -0.8125 -0.09375 -1.015625q-0.078125 -0.203125 -0.34375 -0.359375q-0.265625 -0.15625 -0.71875 -0.15625l-0.34375 0l0 -0.28125l5.53125 0l0 0.28125l-0.34375 0q-0.46875 0 -0.734375 0.171875q-0.203125 0.109375 -0.328125 0.375q-0.078125 0.1875 -0.078125 0.984375l0 6.96875q0 0.8125 0.078125 1.015625q0.09375 0.203125 0.359375 0.359375q0.265625 0.140625 0.703125 0.140625l0.34375 0l0 0.296875l-5.53125 0l0 -0.296875l0.34375 0q0.46875 0 0.75 -0.15625q0.203125 -0.109375 0.3125 -0.375q0.09375 -0.1875 0.09375 -0.984375l0 -3.28125l-3.75 0z" fill-rule="nonzero"></path><path fill="#000000" d="m445.10248 100.07748l0.046875 2.4375l-0.21875 0q-0.15625 -0.921875 -0.765625 -1.46875q-0.609375 -0.5625 -1.3125 -0.5625q-0.546875 0 -0.875 0.296875q-0.3125 0.28125 -0.3125 0.671875q0 0.234375 0.109375 0.421875q0.15625 0.265625 0.5 0.5q0.25 0.1875 1.171875 0.640625q1.28125 0.625 1.71875 1.1875q0.4375 0.546875 0.4375 1.265625q0 0.921875 -0.71875 1.578125q-0.703125 0.65625 -1.796875 0.65625q-0.34375 0 -0.65625 -0.078125q-0.296875 -0.0625 -0.765625 -0.25q-0.25 -0.109375 -0.421875 -0.109375q-0.140625 0 -0.296875 0.109375q-0.15625 0.109375 -0.25 0.328125l-0.203125 0l0 -2.75l0.203125 0q0.234375 1.15625 0.90625 1.765625q0.6875 0.609375 1.453125 0.609375q0.609375 0 0.96875 -0.328125q0.359375 -0.328125 0.359375 -0.765625q0 -0.25 -0.140625 -0.484375q-0.140625 -0.25 -0.421875 -0.46875q-0.28125 -0.21875 -0.984375 -0.5625q-1.0 -0.5 -1.4375 -0.84375q-0.421875 -0.34375 -0.65625 -0.765625q-0.234375 -0.421875 -0.234375 -0.9375q0 -0.859375 0.640625 -1.46875q0.640625 -0.625 1.609375 -0.625q0.359375 0 0.6875 0.09375q0.25 0.0625 0.609375 0.234375q0.359375 0.171875 0.515625 0.171875q0.140625 0 0.21875 -0.078125q0.078125 -0.09375 0.140625 -0.421875l0.171875 0z" fill-rule="nonzero"></path><path fill="#93c47d" d="m507.97653 99.1349l0 0c0 -13.002609 10.54068 -23.543312 23.543304 -23.543312l0 0c6.2440796 0 12.232422 2.4804535 16.647644 6.8956757c4.415222 4.41523 6.895691 10.403557 6.895691 16.647636l0 0c0 13.002609 -10.54071 23.543304 -23.543335 23.543304l0 0c-13.0026245 0 -23.543304 -10.540695 -23.543304 -23.543304z" fill-rule="nonzero"></path><path fill="#e6b8af" d="m517.79553 99.44611l0 0c0 -7.8142395 6.334717 -14.148926 14.148926 -14.148926l0 0c3.7525635 0 7.3513794 1.4906845 10.004822 4.144127c2.6534424 2.6534348 4.144104 6.252266 4.144104 10.004799l0 0c0 7.814232 -6.334656 14.148926 -14.148926 14.148926l0 0c-7.814209 0 -14.148926 -6.334694 -14.148926 -14.148926z" fill-rule="nonzero"></path><path fill="#000000" fill-opacity="0.0" d="m512.3961 77.1706l42.36133 0l0 24.928482l-42.36133 0z" fill-rule="nonzero"></path><path fill="#000000" d="m525.7711 96.43685l0 3.28125q0 0.8125 0.09375 1.015625q0.09375 0.203125 0.34375 0.359375q0.265625 0.140625 0.71875 0.140625l0.34375 0l0 0.296875l-5.53125 0l0 -0.296875l0.34375 0q0.46875 0 0.75 -0.15625q0.203125 -0.109375 0.3125 -0.375q0.078125 -0.1875 0.078125 -0.984375l0 -6.96875q0 -0.8125 -0.09375 -1.015625q-0.078125 -0.203125 -0.34375 -0.359375q-0.25 -0.15625 -0.703125 -0.15625l-0.34375 0l0 -0.28125l5.53125 0l0 0.28125l-0.34375 0q-0.46875 0 -0.75 0.171875q-0.203125 0.109375 -0.3125 0.375q-0.09375 0.1875 -0.09375 0.984375l0 3.0l3.75 0l0 -3.0q0 -0.8125 -0.09375 -1.015625q-0.078125 -0.203125 -0.34375 -0.359375q-0.265625 -0.15625 -0.71875 -0.15625l-0.34375 0l0 -0.28125l5.53125 0l0 0.28125l-0.34375 0q-0.46875 0 -0.734375 0.171875q-0.203125 0.109375 -0.328125 0.375q-0.078125 0.1875 -0.078125 0.984375l0 6.96875q0 0.8125 0.078125 1.015625q0.09375 0.203125 0.359375 0.359375q0.265625 0.140625 0.703125 0.140625l0.34375 0l0 0.296875l-5.53125 0l0 -0.296875l0.34375 0q0.46875 0 0.75 -0.15625q0.203125 -0.109375 0.3125 -0.375q0.09375 -0.1875 0.09375 -0.984375l0 -3.28125l-3.75 0z" fill-rule="nonzero"></path><path fill="#000000" d="m539.0133 100.07748l0.046875 2.4375l-0.21875 0q-0.15625 -0.921875 -0.765625 -1.46875q-0.609375 -0.5625 -1.3125 -0.5625q-0.546875 0 -0.875 0.296875q-0.3125 0.28125 -0.3125 0.671875q0 0.234375 0.109375 0.421875q0.15625 0.265625 0.5 0.5q0.25 0.1875 1.171875 0.640625q1.28125 0.625 1.71875 1.1875q0.4375 0.546875 0.4375 1.265625q0 0.921875 -0.71875 1.578125q-0.703125 0.65625 -1.796875 0.65625q-0.34375 0 -0.65625 -0.078125q-0.296875 -0.0625 -0.765625 -0.25q-0.25 -0.109375 -0.421875 -0.109375q-0.140625 0 -0.296875 0.109375q-0.15625 0.109375 -0.25 0.328125l-0.203125 0l0 -2.75l0.203125 0q0.234375 1.15625 0.90625 1.765625q0.6875 0.609375 1.453125 0.609375q0.609375 0 0.96875 -0.328125q0.359375 -0.328125 0.359375 -0.765625q0 -0.25 -0.140625 -0.484375q-0.140625 -0.25 -0.421875 -0.46875q-0.28125 -0.21875 -0.984375 -0.5625q-1.0 -0.5 -1.4375 -0.84375q-0.421875 -0.34375 -0.65625 -0.765625q-0.234375 -0.421875 -0.234375 -0.9375q0 -0.859375 0.640625 -1.46875q0.640625 -0.625 1.609375 -0.625q0.359375 0 0.6875 0.09375q0.25 0.0625 0.609375 0.234375q0.359375 0.171875 0.515625 0.171875q0.140625 0 0.21875 -0.078125q0.078125 -0.09375 0.140625 -0.421875l0.171875 0z" fill-rule="nonzero"></path><path fill="#93c47d" d="m601.8768 99.447235l0 0c0 -13.002609 10.54071 -23.543304 23.543335 -23.543304l0 0c6.2440796 0 12.232422 2.4804459 16.647644 6.8956757c4.415222 4.415222 6.89563 10.403557 6.89563 16.647629l0 0c0 13.002609 -10.540649 23.543304 -23.543274 23.543304l0 0c-13.0026245 0 -23.543335 -10.540695 -23.543335 -23.543304z" fill-rule="nonzero"></path><path fill="#e6b8af" d="m611.1827 99.44611l0 0c0 -7.8142395 6.334717 -14.148926 14.148926 -14.148926l0 0c3.7525635 0 7.3513794 1.4906845 10.004822 4.144127c2.6534424 2.6534348 4.144104 6.252266 4.144104 10.004799l0 0c0 7.814232 -6.334656 14.148926 -14.148926 14.148926l0 0c-7.814209 0 -14.148926 -6.334694 -14.148926 -14.148926z" fill-rule="nonzero"></path><path fill="#000000" fill-opacity="0.0" d="m605.78503 77.1706l42.36133 0l0 24.928482l-42.36133 0z" fill-rule="nonzero"></path><path fill="#000000" d="m619.16003 96.43685l0 3.28125q0 0.8125 0.09375 1.015625q0.09375 0.203125 0.34375 0.359375q0.265625 0.140625 0.71875 0.140625l0.34375 0l0 0.296875l-5.53125 0l0 -0.296875l0.34375 0q0.46875 0 0.75 -0.15625q0.203125 -0.109375 0.3125 -0.375q0.078125 -0.1875 0.078125 -0.984375l0 -6.96875q0 -0.8125 -0.09375 -1.015625q-0.078125 -0.203125 -0.34375 -0.359375q-0.25 -0.15625 -0.703125 -0.15625l-0.34375 0l0 -0.28125l5.53125 0l0 0.28125l-0.34375 0q-0.46875 0 -0.75 0.171875q-0.203125 0.109375 -0.3125 0.375q-0.09375 0.1875 -0.09375 0.984375l0 3.0l3.75 0l0 -3.0q0 -0.8125 -0.09375 -1.015625q-0.078125 -0.203125 -0.34375 -0.359375q-0.265625 -0.15625 -0.71875 -0.15625l-0.34375 0l0 -0.28125l5.53125 0l0 0.28125l-0.34375 0q-0.46875 0 -0.734375 0.171875q-0.203125 0.109375 -0.328125 0.375q-0.078125 0.1875 -0.078125 0.984375l0 6.96875q0 0.8125 0.078125 1.015625q0.09375 0.203125 0.359375 0.359375q0.265625 0.140625 0.703125 0.140625l0.34375 0l0 0.296875l-5.53125 0l0 -0.296875l0.34375 0q0.46875 0 0.75 -0.15625q0.203125 -0.109375 0.3125 -0.375q0.09375 -0.1875 0.09375 -0.984375l0 -3.28125l-3.75 0z" fill-rule="nonzero"></path><path fill="#000000" d="m632.4022 100.07748l0.046875 2.4375l-0.21875 0q-0.15625 -0.921875 -0.765625 -1.46875q-0.609375 -0.5625 -1.3125 -0.5625q-0.546875 0 -0.875 0.296875q-0.3125 0.28125 -0.3125 0.671875q0 0.234375 0.109375 0.421875q0.15625 0.265625 0.5 0.5q0.25 0.1875 1.171875 0.640625q1.28125 0.625 1.71875 1.1875q0.4375 0.546875 0.4375 1.265625q0 0.921875 -0.71875 1.578125q-0.703125 0.65625 -1.796875 0.65625q-0.34375 0 -0.65625 -0.078125q-0.296875 -0.0625 -0.765625 -0.25q-0.25 -0.109375 -0.421875 -0.109375q-0.140625 0 -0.296875 0.109375q-0.15625 0.109375 -0.25 0.328125l-0.203125 0l0 -2.75l0.203125 0q0.234375 1.15625 0.90625 1.765625q0.6875 0.609375 1.453125 0.609375q0.609375 0 0.96875 -0.328125q0.359375 -0.328125 0.359375 -0.765625q0 -0.25 -0.140625 -0.484375q-0.140625 -0.25 -0.421875 -0.46875q-0.28125 -0.21875 -0.984375 -0.5625q-1.0 -0.5 -1.4375 -0.84375q-0.421875 -0.34375 -0.65625 -0.765625q-0.234375 -0.421875 -0.234375 -0.9375q0 -0.859375 0.640625 -1.46875q0.640625 -0.625 1.609375 -0.625q0.359375 0 0.6875 0.09375q0.25 0.0625 0.609375 0.234375q0.359375 0.171875 0.515625 0.171875q0.140625 0 0.21875 -0.078125q0.078125 -0.09375 0.140625 -0.421875l0.171875 0z" fill-rule="nonzero"></path><path fill="#000000" fill-opacity="0.0" d="m234.78166 82.48727c0 -15.947838 -14.881897 -31.935043 -29.763779 -31.895676c-14.881897 0.03937149 -29.763794 16.105316 -29.763794 32.21064" fill-rule="nonzero"></path><path stroke="#000000" stroke-width="1.0" stroke-linejoin="round" stroke-linecap="butt" stroke-dasharray="1.0,3.0" d="m234.55797 79.06749l-0.04170227 -0.31105804c-0.03492737 -0.24774933 -0.07318115 -0.4952011 -0.114730835 -0.7422943c-0.083114624 -0.4941864 -0.17939758 -0.9869385 -0.2883911 -1.4777756c-0.43600464 -1.9633331 -1.0754547 -3.8959045 -1.8893127 -5.7663193c-1.6277008 -3.7408524 -3.953003 -7.2331314 -6.743347 -10.225811c-5.580719 -5.985367 -13.021652 -9.972324 -20.4626 -9.952641c-7.4409485 0.019687653 -14.881897 4.046013 -20.4626 10.080593c-2.7903595 3.0172844 -5.1156464 6.5366325 -6.7433624 10.308239c-0.8138428 1.8858032 -1.4533081 3.834671 -1.8893127 5.815384c-0.10897827 0.4951706 -0.20527649 0.9923401 -0.28837585 1.4910126c-0.041549683 0.24932861 -0.07980347 0.49904633 -0.114730835 0.7490692l-0.04598999 0.34628296" fill-rule="evenodd"></path><path fill="#000000" stroke="#000000" stroke-width="1.0" stroke-linecap="butt" d="m234.55797 79.06749l-1.1956024 -1.0487823l1.3238678 3.0097733l0.92051697 -3.1565857z" fill-rule="evenodd"></path><path fill="#000000" stroke="#000000" stroke-width="1.0" stroke-linecap="butt" d="m175.4735 79.38217l-1.0502777 -1.1942749l0.924469 3.155426l1.3200836 -3.0114365z" fill-rule="evenodd"></path><path fill="#000000" fill-opacity="0.0" d="m421.68192 82.48727c0 -24.427376 -30.055115 -45.874435 -60.11023 -48.85475c-30.055115 -2.9803162 -60.11023 12.506115 -60.11023 25.012234" fill-rule="nonzero"></path><path stroke="#000000" stroke-width="1.0" stroke-linejoin="round" stroke-linecap="butt" stroke-dasharray="1.0,3.0" d="m421.48596 79.06579l-0.06881714 -0.5568619c-0.024963379 -0.18793488 -0.05166626 -0.37563324 -0.080078125 -0.56308746c-0.22747803 -1.4996414 -0.56500244 -2.9838715 -1.0052795 -4.4488907c-0.88049316 -2.9300385 -2.171936 -5.783264 -3.8155823 -8.529427c-3.2872925 -5.4923325 -7.9833984 -10.556416 -13.618744 -14.950275c-11.27066 -8.787731 -26.298218 -14.894573 -41.325775 -16.384731c-15.027557 -1.4901581 -30.055115 1.6363716 -41.325775 6.698704c-5.6353455 2.53117 -10.331451 5.5462837 -13.618744 8.710243c-1.6436462 1.5819778 -2.9350586 3.201168 -3.8155823 4.8156776c-0.22012329 0.4036255 -0.4145813 0.8069649 -0.582428 1.2093506l-0.087890625 0.21927261" fill-rule="evenodd"></path><path fill="#000000" stroke="#000000" stroke-width="1.0" stroke-linecap="butt" d="m421.48596 79.06579l-1.1870422 -1.0584412l1.299408 3.0204086l0.94607544 -3.1490173z" fill-rule="evenodd"></path><path fill="#000000" stroke="#000000" stroke-width="1.0" stroke-linecap="butt" d="m302.14127 55.285763l-0.8791504 -1.3253136l0.48931885 3.2514458l1.7151489 -2.8052902z" fill-rule="evenodd"></path><path fill="#000000" fill-opacity="0.0" d="m514.8722 82.48727c0 -15.947838 -14.976349 -31.90355 -29.952728 -31.895672c-14.976379 0.007873535 -29.952759 15.979328 -29.952759 31.958668" fill-rule="nonzero"></path><path stroke="#000000" stroke-width="1.0" stroke-linejoin="round" stroke-linecap="butt" stroke-dasharray="1.0,3.0" d="m514.64703 79.06759l-0.041931152 -0.3106308c-0.035095215 -0.24767303 -0.0736084 -0.49505615 -0.11541748 -0.7420654c-0.083618164 -0.4940338 -0.18054199 -0.9866028 -0.29022217 -1.4772415c-0.43878174 -1.962532 -1.0822754 -3.8939896 -1.9013062 -5.7631836c-1.6380615 -3.738388 -3.978119 -7.2277145 -6.786194 -10.218426c-5.6161194 -5.98143 -13.104309 -9.968388 -20.592499 -9.964451c-7.4881897 0.0039367676 -14.976379 3.9987717 -20.59253 9.99004c-2.808075 2.9956322 -5.1481323 6.4903755 -6.7861633 10.234913c-0.81903076 1.8722687 -1.4625244 3.8069916 -1.9013062 5.772995c-0.109680176 0.49150085 -0.206604 0.98496246 -0.29022217 1.4798889c-0.0418396 0.24745941 -0.080322266 0.49529266 -0.115448 0.74342346l-0.042816162 0.31767273" fill-rule="evenodd"></path><path fill="#000000" stroke="#000000" stroke-width="1.0" stroke-linecap="butt" d="m514.64703 79.06758l-1.1960449 -1.0482635l1.3251953 3.0092087l0.9191284 -3.1569824z" fill-rule="evenodd"></path><path fill="#000000" stroke="#000000" stroke-width="1.0" stroke-linecap="butt" d="m455.19098 79.130516l-1.0485535 -1.1957703l0.9199524 3.156746l1.3244019 -3.0095444z" fill-rule="evenodd"></path><path fill="#000000" fill-opacity="0.0" d="m608.77246 82.79961c0 -16.104012 -15.149597 -32.168644 -30.299194 -32.208015c-15.149597 -0.03937149 -30.299194 15.946526 -30.299194 31.893051" fill-rule="nonzero"></path><path stroke="#000000" stroke-width="1.0" stroke-linejoin="round" stroke-linecap="butt" stroke-dasharray="1.0,3.0" d="m608.54913 79.37981l-0.046813965 -0.34623718c-0.035583496 -0.25 -0.074523926 -0.49969482 -0.11682129 -0.7490082c-0.08459473 -0.49863434 -0.18261719 -0.99575806 -0.2935791 -1.4908905c-0.44384766 -1.9805527 -1.0947876 -3.9292603 -1.9232788 -5.814911c-1.6569824 -3.7713013 -4.024109 -7.2903557 -6.864685 -10.307396c-5.6810913 -6.034088 -13.25592 -10.060085 -20.830688 -10.079773c-7.574829 -0.019683838 -15.149597 3.9669456 -20.830688 9.95182c-2.8405762 2.9924316 -5.2077026 6.4844284 -6.864685 10.224968c-0.8284912 1.8702698 -1.4794312 3.8026733 -1.9233398 5.7658463c-0.11090088 0.49079132 -0.20892334 0.98350525 -0.29351807 1.4776611c-0.0423584 0.24707031 -0.08123779 0.4944992 -0.11682129 0.7422333l-0.042419434 0.31101227" fill-rule="evenodd"></path><path fill="#000000" stroke="#000000" stroke-width="1.0" stroke-linecap="butt" d="m608.54913 79.3798l-1.1954956 -1.0488968l1.3235474 3.009903l0.9208374 -3.1564865z" fill-rule="evenodd"></path><path fill="#000000" stroke="#000000" stroke-width="1.0" stroke-linecap="butt" d="m548.4018 79.06513l-1.0474243 -1.1968307l0.9168091 3.157669l1.3273926 -3.0082092z" fill-rule="evenodd"></path><path fill="#e6b8af" d="m283.30344 145.2637l0 0c0 -7.8142395 6.3346863 -14.148926 14.148926 -14.148926l0 0c3.752533 0 7.351349 1.4906769 10.004791 4.1441193c2.6534424 2.6534424 4.1441345 6.2522736 4.1441345 10.0048065l0 0c0 7.8142395 -6.3346863 14.148926 -14.148926 14.148926l0 0c-7.8142395 0 -14.148926 -6.3346863 -14.148926 -14.148926z" fill-rule="nonzero"></path><path fill="#000000" fill-opacity="0.0" d="m277.90552 122.9895l47.09796 0l0 24.928482l-47.09796 0z" fill-rule="nonzero"></path><path fill="#000000" d="m291.28052 142.25575l0 3.28125q0 0.8125 0.09375 1.015625q0.09375 0.203125 0.34375 0.359375q0.265625 0.140625 0.71875 0.140625l0.34375 0l0 0.296875l-5.53125 0l0 -0.296875l0.34375 0q0.46875 0 0.75 -0.15625q0.203125 -0.109375 0.3125 -0.375q0.078125 -0.1875 0.078125 -0.984375l0 -6.96875q0 -0.8125 -0.09375 -1.015625q-0.078125 -0.203125 -0.34375 -0.359375q-0.25 -0.15625 -0.703125 -0.15625l-0.34375 0l0 -0.28125l5.53125 0l0 0.28125l-0.34375 0q-0.46875 0 -0.75 0.171875q-0.203125 0.109375 -0.3125 0.375q-0.09375 0.1875 -0.09375 0.984375l0 3.0l3.75 0l0 -3.0q0 -0.8125 -0.09375 -1.015625q-0.078125 -0.203125 -0.34375 -0.359375q-0.265625 -0.15625 -0.71875 -0.15625l-0.34375 0l0 -0.28125l5.53125 0l0 0.28125l-0.34375 0q-0.46875 0 -0.734375 0.171875q-0.203125 0.109375 -0.328125 0.375q-0.078125 0.1875 -0.078125 0.984375l0 6.96875q0 0.8125 0.078125 1.015625q0.09375 0.203125 0.359375 0.359375q0.265625 0.140625 0.703125 0.140625l0.34375 0l0 0.296875l-5.53125 0l0 -0.296875l0.34375 0q0.46875 0 0.75 -0.15625q0.203125 -0.109375 0.3125 -0.375q0.09375 -0.1875 0.09375 -0.984375l0 -3.28125l-3.75 0z" fill-rule="nonzero"></path><path fill="#000000" d="m302.35083 146.49013l0 2.953125l0.140625 0q0.6875 0 1.0 -0.421875q0.3125 -0.4375 0.40625 -1.296875l0.203125 0l0 3.8125l-0.203125 0q-0.0625 -0.609375 -0.28125 -1.0q-0.203125 -0.40625 -0.484375 -0.546875q-0.265625 -0.140625 -0.78125 -0.140625l0 2.0625q0 0.59375 0.046875 0.734375q0.046875 0.125 0.1875 0.21875q0.140625 0.078125 0.453125 0.078125l0.4375 0q1.015625 0 1.625 -0.46875q0.625 -0.46875 0.890625 -1.4375l0.203125 0l-0.328125 2.3125l-6.296875 0l0 -0.203125l0.25 0q0.3125 0 0.5 -0.109375q0.140625 -0.078125 0.21875 -0.25q0.0625 -0.140625 0.0625 -0.6875l0 -4.78125q0 -0.5 -0.03125 -0.609375q-0.046875 -0.1875 -0.203125 -0.296875q-0.203125 -0.140625 -0.546875 -0.140625l-0.25 0l0 -0.203125l6.09375 0l0 2.15625l-0.203125 0q-0.15625 -0.796875 -0.4375 -1.140625q-0.28125 -0.34375 -0.796875 -0.5q-0.296875 -0.09375 -1.125 -0.09375l-0.75 0zm5.1232605 2.984375l0 -0.234375q0.625 -0.265625 0.90625 -0.6875q0.28125 -0.4375 0.28125 -0.890625q0 -0.078125 -0.046875 -0.125q-0.03125 -0.046875 -0.078125 -0.046875q-0.03125 0 -0.09375 0.03125q-0.15625 0.09375 -0.390625 0.09375q-0.3125 0 -0.546875 -0.234375q-0.234375 -0.25 -0.234375 -0.59375q0 -0.34375 0.265625 -0.609375q0.28125 -0.28125 0.65625 -0.28125q0.46875 0 0.796875 0.359375q0.328125 0.359375 0.328125 0.984375q0 0.765625 -0.46875 1.359375q-0.46875 0.59375 -1.375 0.875z" fill-rule="nonzero"></path><path fill="#ffe599" d="m187.62477 40.440716l0 0c0 -8.623302 6.99057 -15.613871 15.613876 -15.613871l0 0c4.1410522 0 8.112503 1.6450291 11.04068 4.5731964c2.9281616 2.9281712 4.5731964 6.899618 4.5731964 11.040674l0 0c0 8.623302 -6.99057 15.613873 -15.613876 15.613873l0 0c-8.623306 0 -15.613876 -6.99057 -15.613876 -15.613873z" fill-rule="nonzero"></path><path fill="#000000" fill-opacity="0.0" d="m181.1049 18.26509l53.665817 0l0 24.928478l-53.665817 0z" fill-rule="nonzero"></path><path fill="#000000" d="m194.4799 37.53134l0 3.28125q0 0.8125 0.09375 1.015625q0.09375 0.203125 0.34375 0.359375q0.265625 0.140625 0.71875 0.140625l0.34375 0l0 0.296875l-5.53125 0l0 -0.296875l0.34375 0q0.46875 0 0.75 -0.15625q0.203125 -0.109375 0.3125 -0.375q0.078125 -0.1875 0.078125 -0.984375l0 -6.96875q0 -0.8125 -0.09375 -1.015625q-0.078125 -0.203125 -0.34375 -0.359375q-0.25 -0.15625 -0.703125 -0.15625l-0.34375 0l0 -0.28125l5.53125 0l0 0.28125l-0.34375 0q-0.46875 0 -0.75 0.171875q-0.203125 0.109375 -0.3125 0.375q-0.09375 0.1875 -0.09375 0.984375l0 3.0l3.75 0l0 -3.0q0 -0.8125 -0.09375 -1.015625q-0.078125 -0.203125 -0.34375 -0.359375q-0.265625 -0.15625 -0.71875 -0.15625l-0.34375 0l0 -0.28125l5.53125 0l0 0.28125l-0.34375 0q-0.46875 0 -0.734375 0.171875q-0.203125 0.109375 -0.328125 0.375q-0.078125 0.1875 -0.078125 0.984375l0 6.96875q0 0.8125 0.078125 1.015625q0.09375 0.203125 0.359375 0.359375q0.265625 0.140625 0.703125 0.140625l0.34375 0l0 0.296875l-5.53125 0l0 -0.296875l0.34375 0q0.46875 0 0.75 -0.15625q0.203125 -0.109375 0.3125 -0.375q0.09375 -0.1875 0.09375 -0.984375l0 -3.28125l-3.75 0z" fill-rule="nonzero"></path><path fill="#000000" d="m207.72209 41.171967l0.046875 2.4375l-0.21875 0q-0.15625 -0.921875 -0.765625 -1.46875q-0.609375 -0.5625 -1.3125 -0.5625q-0.546875 0 -0.875 0.296875q-0.3125 0.28125 -0.3125 0.671875q0 0.234375 0.109375 0.421875q0.15625 0.265625 0.5 0.5q0.25 0.1875 1.171875 0.640625q1.28125 0.625 1.71875 1.1875q0.4375 0.546875 0.4375 1.265625q0 0.921875 -0.71875 1.578125q-0.703125 0.65625 -1.796875 0.65625q-0.34375 0 -0.65625 -0.078125q-0.296875 -0.0625 -0.765625 -0.25q-0.25 -0.109375 -0.421875 -0.109375q-0.140625 0 -0.296875 0.109375q-0.15625 0.109375 -0.25 0.328125l-0.203125 0l0 -2.75l0.203125 0q0.234375 1.15625 0.90625 1.765625q0.6875 0.609375 1.453125 0.609375q0.609375 0 0.96875 -0.328125q0.359375 -0.328125 0.359375 -0.765625q0 -0.25 -0.140625 -0.484375q-0.140625 -0.25 -0.421875 -0.46875q-0.28125 -0.21875 -0.984375 -0.5625q-1.0 -0.5 -1.4375 -0.84375q-0.421875 -0.34375 -0.65625 -0.765625q-0.234375 -0.421875 -0.234375 -0.9375q0 -0.859375 0.640625 -1.46875q0.640625 -0.625 1.609375 -0.625q0.359375 0 0.6875 0.09375q0.25 0.0625 0.609375 0.234375q0.359375 0.171875 0.515625 0.171875q0.140625 0 0.21875 -0.078125q0.078125 -0.09375 0.140625 -0.421875l0.171875 0zm5.9264984 0l0.046875 2.4375l-0.21875 0q-0.15625 -0.921875 -0.765625 -1.46875q-0.609375 -0.5625 -1.3125 -0.5625q-0.546875 0 -0.875 0.296875q-0.3125 0.28125 -0.3125 0.671875q0 0.234375 0.109375 0.421875q0.15625 0.265625 0.5 0.5q0.25 0.1875 1.171875 0.640625q1.28125 0.625 1.71875 1.1875q0.4375 0.546875 0.4375 1.265625q0 0.921875 -0.71875 1.578125q-0.703125 0.65625 -1.796875 0.65625q-0.34375 0 -0.65625 -0.078125q-0.296875 -0.0625 -0.765625 -0.25q-0.25 -0.109375 -0.421875 -0.109375q-0.140625 0 -0.296875 0.109375q-0.15625 0.109375 -0.25 0.328125l-0.203125 0l0 -2.75l0.203125 0q0.234375 1.15625 0.90625 1.765625q0.6875 0.609375 1.453125 0.609375q0.609375 0 0.96875 -0.328125q0.359375 -0.328125 0.359375 -0.765625q0 -0.25 -0.140625 -0.484375q-0.140625 -0.25 -0.421875 -0.46875q-0.28125 -0.21875 -0.984375 -0.5625q-1.0 -0.5 -1.4375 -0.84375q-0.421875 -0.34375 -0.65625 -0.765625q-0.234375 -0.421875 -0.234375 -0.9375q0 -0.859375 0.640625 -1.46875q0.640625 -0.625 1.609375 -0.625q0.359375 0 0.6875 0.09375q0.25 0.0625 0.609375 0.234375q0.359375 0.171875 0.515625 0.171875q0.140625 0 0.21875 -0.078125q0.078125 -0.09375 0.140625 -0.421875l0.171875 0zm1.7702484 3.578125l0 -0.234375q0.625 -0.265625 0.90625 -0.6875q0.28125 -0.4375 0.28125 -0.890625q0 -0.078125 -0.046875 -0.125q-0.03125 -0.046875 -0.078125 -0.046875q-0.03125 0 -0.09375 0.03125q-0.15625 0.09375 -0.390625 0.09375q-0.3125 0 -0.546875 -0.234375q-0.234375 -0.25 -0.234375 -0.59375q0 -0.34375 0.265625 -0.609375q0.28125 -0.28125 0.65625 -0.28125q0.46875 0 0.796875 0.359375q0.328125 0.359375 0.328125 0.984375q0 0.765625 -0.46875 1.359375q-0.46875 0.59375 -1.375 0.875z" fill-rule="nonzero"></path><path fill="#93c47d" d="m39.532963 99.447235l0 0c0 -13.002609 10.540695 -23.543304 23.543304 -23.543304l0 0c6.244076 0 12.23241 2.4804459 16.647633 6.8956757c4.41523 4.415222 6.8956757 10.403557 6.8956757 16.647629l0 0c0 13.002609 -10.540695 23.543304 -23.543308 23.543304l0 0c-13.002609 0 -23.543304 -10.540695 -23.543304 -23.543304z" fill-rule="nonzero"></path><path fill="#e6b8af" d="m49.416294 99.758446l0 0c0 -7.814232 6.33469 -14.148926 14.148926 -14.148926l0 0c3.7525291 0 7.3513603 1.4906921 10.004803 4.144127c2.6534348 2.6534424 4.1441193 6.2522736 4.1441193 10.004799l0 0c0 7.8142395 -6.3346863 14.148926 -14.148922 14.148926l0 0c-7.8142357 0 -14.148926 -6.3346863 -14.148926 -14.148926z" fill-rule="nonzero"></path><path fill="#000000" fill-opacity="0.0" d="m44.01873 77.48294l45.657448 0l0 24.928474l-45.657448 0z" fill-rule="nonzero"></path><path fill="#000000" d="m57.39373 96.74919l0 3.28125q0 0.8125 0.09375 1.015625q0.09375 0.203125 0.34375 0.359375q0.265625 0.140625 0.71875 0.140625l0.34375 0l0 0.296875l-5.53125 0l0 -0.296875l0.34375 0q0.46875 0 0.75 -0.15625q0.203125 -0.109375 0.3125 -0.375q0.078125 -0.1875 0.078125 -0.984375l0 -6.96875q0 -0.8125 -0.09375 -1.015625q-0.078125 -0.203125 -0.34375 -0.359375q-0.25 -0.15625 -0.703125 -0.15625l-0.34375 0l0 -0.28125l5.53125 0l0 0.28125l-0.34375 0q-0.46875 0 -0.75 0.171875q-0.203125 0.109375 -0.3125 0.375q-0.09375 0.1875 -0.09375 0.984375l0 3.0l3.75 0l0 -3.0q0 -0.8125 -0.09375 -1.015625q-0.078125 -0.203125 -0.34375 -0.359375q-0.265625 -0.15625 -0.71875 -0.15625l-0.34375 0l0 -0.28125l5.53125 0l0 0.28125l-0.34375 0q-0.46875 0 -0.734375 0.171875q-0.203125 0.109375 -0.328125 0.375q-0.078125 0.1875 -0.078125 0.984375l0 6.96875q0 0.8125 0.078125 1.015625q0.09375 0.203125 0.359375 0.359375q0.265625 0.140625 0.703125 0.140625l0.34375 0l0 0.296875l-5.53125 0l0 -0.296875l0.34375 0q0.46875 0 0.75 -0.15625q0.203125 -0.109375 0.3125 -0.375q0.09375 -0.1875 0.09375 -0.984375l0 -3.28125l-3.75 0z" fill-rule="nonzero"></path><path fill="#000000" d="m70.63592 100.38982l0.046875 2.4375l-0.21875 0q-0.15625 -0.921875 -0.765625 -1.46875q-0.609375 -0.5625 -1.3125 -0.5625q-0.546875 0 -0.875 0.296875q-0.3125 0.28125 -0.3125 0.671875q0 0.234375 0.109375 0.421875q0.15625 0.265625 0.5 0.5q0.25 0.1875 1.171875 0.640625q1.28125 0.625 1.71875 1.1875q0.4375 0.546875 0.4375 1.265625q0 0.921875 -0.71875 1.578125q-0.703125 0.65625 -1.796875 0.65625q-0.34375 0 -0.65625 -0.078125q-0.296875 -0.0625 -0.765625 -0.25q-0.25 -0.109375 -0.421875 -0.109375q-0.140625 0 -0.296875 0.109375q-0.15625 0.109375 -0.25 0.328125l-0.203125 0l0 -2.75l0.203125 0q0.234375 1.15625 0.90625 1.765625q0.6875 0.609375 1.453125 0.609375q0.609375 0 0.96875 -0.328125q0.359375 -0.328125 0.359375 -0.765625q0 -0.25 -0.140625 -0.484375q-0.140625 -0.25 -0.421875 -0.46875q-0.28125 -0.21875 -0.984375 -0.5625q-1.0 -0.5 -1.4375 -0.84375q-0.421875 -0.34375 -0.65625 -0.765625q-0.234375 -0.421875 -0.234375 -0.9375q0 -0.859375 0.640625 -1.46875q0.640625 -0.625 1.609375 -0.625q0.359375 0 0.6875 0.09375q0.25 0.0625 0.609375 0.234375q0.359375 0.171875 0.515625 0.171875q0.140625 0 0.21875 -0.078125q0.078125 -0.09375 0.140625 -0.421875l0.171875 0z" fill-rule="nonzero"></path><path fill="#93c47d" d="m135.05396 99.447235l0 0c0 -13.002609 10.540695 -23.543304 23.543304 -23.543304l0 0c6.2440796 0 12.232407 2.4804459 16.647644 6.8956757c4.415222 4.415222 6.8956757 10.403557 6.8956757 16.647629l0 0c0 13.002609 -10.54071 23.543304 -23.54332 23.543304l0 0c-13.002609 0 -23.543304 -10.540695 -23.543304 -23.543304z" fill-rule="nonzero"></path><path fill="#e6b8af" d="m144.93729 99.758446l0 0c0 -7.814232 6.3347015 -14.148926 14.148926 -14.148926l0 0c3.752533 0 7.351364 1.4906921 10.0048065 4.144127c2.6534424 2.6534424 4.1441193 6.2522736 4.1441193 10.004799l0 0c0 7.8142395 -6.3346863 14.148926 -14.148926 14.148926l0 0c-7.8142242 0 -14.148926 -6.3346863 -14.148926 -14.148926z" fill-rule="nonzero"></path><path fill="#000000" fill-opacity="0.0" d="m139.53786 77.48294l42.36133 0l0 24.928474l-42.36133 0z" fill-rule="nonzero"></path><path fill="#000000" d="m152.91286 96.74919l0 3.28125q0 0.8125 0.09375 1.015625q0.09375 0.203125 0.34375 0.359375q0.265625 0.140625 0.71875 0.140625l0.34375 0l0 0.296875l-5.53125 0l0 -0.296875l0.34375 0q0.46875 0 0.75 -0.15625q0.203125 -0.109375 0.3125 -0.375q0.078125 -0.1875 0.078125 -0.984375l0 -6.96875q0 -0.8125 -0.09375 -1.015625q-0.078125 -0.203125 -0.34375 -0.359375q-0.25 -0.15625 -0.703125 -0.15625l-0.34375 0l0 -0.28125l5.53125 0l0 0.28125l-0.34375 0q-0.46875 0 -0.75 0.171875q-0.203125 0.109375 -0.3125 0.375q-0.09375 0.1875 -0.09375 0.984375l0 3.0l3.75 0l0 -3.0q0 -0.8125 -0.09375 -1.015625q-0.078125 -0.203125 -0.34375 -0.359375q-0.265625 -0.15625 -0.71875 -0.15625l-0.34375 0l0 -0.28125l5.53125 0l0 0.28125l-0.34375 0q-0.46875 0 -0.734375 0.171875q-0.203125 0.109375 -0.328125 0.375q-0.078125 0.1875 -0.078125 0.984375l0 6.96875q0 0.8125 0.078125 1.015625q0.09375 0.203125 0.359375 0.359375q0.265625 0.140625 0.703125 0.140625l0.34375 0l0 0.296875l-5.53125 0l0 -0.296875l0.34375 0q0.46875 0 0.75 -0.15625q0.203125 -0.109375 0.3125 -0.375q0.09375 -0.1875 0.09375 -0.984375l0 -3.28125l-3.75 0z" fill-rule="nonzero"></path><path fill="#000000" d="m166.15504 100.38982l0.046875 2.4375l-0.21875 0q-0.15625 -0.921875 -0.765625 -1.46875q-0.609375 -0.5625 -1.3125 -0.5625q-0.546875 0 -0.875 0.296875q-0.3125 0.28125 -0.3125 0.671875q0 0.234375 0.109375 0.421875q0.15625 0.265625 0.5 0.5q0.25 0.1875 1.171875 0.640625q1.28125 0.625 1.71875 1.1875q0.4375 0.546875 0.4375 1.265625q0 0.921875 -0.71875 1.578125q-0.703125 0.65625 -1.796875 0.65625q-0.34375 0 -0.65625 -0.078125q-0.296875 -0.0625 -0.765625 -0.25q-0.25 -0.109375 -0.421875 -0.109375q-0.140625 0 -0.296875 0.109375q-0.15625 0.109375 -0.25 0.328125l-0.203125 0l0 -2.75l0.203125 0q0.234375 1.15625 0.90625 1.765625q0.6875 0.609375 1.453125 0.609375q0.609375 0 0.96875 -0.328125q0.359375 -0.328125 0.359375 -0.765625q0 -0.25 -0.140625 -0.484375q-0.140625 -0.25 -0.421875 -0.46875q-0.28125 -0.21875 -0.984375 -0.5625q-1.0 -0.5 -1.4375 -0.84375q-0.421875 -0.34375 -0.65625 -0.765625q-0.234375 -0.421875 -0.234375 -0.9375q0 -0.859375 0.640625 -1.46875q0.640625 -0.625 1.609375 -0.625q0.359375 0 0.6875 0.09375q0.25 0.0625 0.609375 0.234375q0.359375 0.171875 0.515625 0.171875q0.140625 0 0.21875 -0.078125q0.078125 -0.09375 0.140625 -0.421875l0.171875 0z" fill-rule="nonzero"></path><path fill="#93c47d" d="m227.88599 99.1349l0 0c0 -13.002609 10.540695 -23.543312 23.543304 -23.543312l0 0c6.2440796 0 12.232391 2.4804535 16.647614 6.8956757c4.4152527 4.41523 6.895691 10.403557 6.895691 16.647636l0 0c0 13.002609 -10.54071 23.543304 -23.543304 23.543304l0 0c-13.002609 0 -23.543304 -10.540695 -23.543304 -23.543304z" fill-rule="nonzero"></path><path fill="#e6b8af" d="m237.77063 99.758446l0 0c0 -7.814232 6.3346863 -14.148926 14.148926 -14.148926l0 0c3.7525177 0 7.351349 1.4906921 10.004791 4.144127c2.6534424 2.6534424 4.1441345 6.2522736 4.1441345 10.004799l0 0c0 7.8142395 -6.3346863 14.148926 -14.148926 14.148926l0 0c-7.8142395 0 -14.148926 -6.3346863 -14.148926 -14.148926z" fill-rule="nonzero"></path><path fill="#000000" fill-opacity="0.0" d="m232.37291 77.48294l38.503616 0l0 24.928474l-38.503616 0z" fill-rule="nonzero"></path><path fill="#000000" d="m245.74791 96.74919l0 3.28125q0 0.8125 0.09375 1.015625q0.09375 0.203125 0.34375 0.359375q0.265625 0.140625 0.71875 0.140625l0.34375 0l0 0.296875l-5.53125 0l0 -0.296875l0.34375 0q0.46875 0 0.75 -0.15625q0.203125 -0.109375 0.3125 -0.375q0.078125 -0.1875 0.078125 -0.984375l0 -6.96875q0 -0.8125 -0.09375 -1.015625q-0.078125 -0.203125 -0.34375 -0.359375q-0.25 -0.15625 -0.703125 -0.15625l-0.34375 0l0 -0.28125l5.53125 0l0 0.28125l-0.34375 0q-0.46875 0 -0.75 0.171875q-0.203125 0.109375 -0.3125 0.375q-0.09375 0.1875 -0.09375 0.984375l0 3.0l3.75 0l0 -3.0q0 -0.8125 -0.09375 -1.015625q-0.078125 -0.203125 -0.34375 -0.359375q-0.265625 -0.15625 -0.71875 -0.15625l-0.34375 0l0 -0.28125l5.53125 0l0 0.28125l-0.34375 0q-0.46875 0 -0.734375 0.171875q-0.203125 0.109375 -0.328125 0.375q-0.078125 0.1875 -0.078125 0.984375l0 6.96875q0 0.8125 0.078125 1.015625q0.09375 0.203125 0.359375 0.359375q0.265625 0.140625 0.703125 0.140625l0.34375 0l0 0.296875l-5.53125 0l0 -0.296875l0.34375 0q0.46875 0 0.75 -0.15625q0.203125 -0.109375 0.3125 -0.375q0.09375 -0.1875 0.09375 -0.984375l0 -3.28125l-3.75 0z" fill-rule="nonzero"></path><path fill="#000000" d="m258.99008 100.38982l0.046875 2.4375l-0.21875 0q-0.15625 -0.921875 -0.765625 -1.46875q-0.609375 -0.5625 -1.3125 -0.5625q-0.546875 0 -0.87498474 0.296875q-0.3125 0.28125 -0.3125 0.671875q0 0.234375 0.109375 0.421875q0.15625 0.265625 0.49998474 0.5q0.25 0.1875 1.171875 0.640625q1.28125 0.625 1.71875 1.1875q0.4375 0.546875 0.4375 1.265625q0 0.921875 -0.71875 1.578125q-0.703125 0.65625 -1.796875 0.65625q-0.34375 0 -0.65625 -0.078125q-0.296875 -0.0625 -0.76560974 -0.25q-0.25 -0.109375 -0.421875 -0.109375q-0.140625 0 -0.296875 0.109375q-0.15625 0.109375 -0.25 0.328125l-0.203125 0l0 -2.75l0.203125 0q0.234375 1.15625 0.90625 1.765625q0.68748474 0.609375 1.4531097 0.609375q0.609375 0 0.96875 -0.328125q0.359375 -0.328125 0.359375 -0.765625q0 -0.25 -0.140625 -0.484375q-0.140625 -0.25 -0.421875 -0.46875q-0.28125 -0.21875 -0.984375 -0.5625q-0.99998474 -0.5 -1.4374847 -0.84375q-0.421875 -0.34375 -0.65625 -0.765625q-0.234375 -0.421875 -0.234375 -0.9375q0 -0.859375 0.640625 -1.46875q0.640625 -0.625 1.6093597 -0.625q0.359375 0 0.6875 0.09375q0.25 0.0625 0.609375 0.234375q0.359375 0.171875 0.515625 0.171875q0.140625 0 0.21875 -0.078125q0.078125 -0.09375 0.140625 -0.421875l0.171875 0z" fill-rule="nonzero"></path><path fill="#93c47d" d="m321.33743 99.447235l0 0c0 -13.002609 10.54068 -23.543304 23.543304 -23.543304l0 0c6.2440796 0 12.232391 2.4804459 16.647614 6.8956757c4.4152527 4.415222 6.895691 10.403557 6.895691 16.647629l0 0c0 13.002609 -10.54071 23.543304 -23.543304 23.543304l0 0c-13.0026245 0 -23.543304 -10.540695 -23.543304 -23.543304z" fill-rule="nonzero"></path><path fill="#e6b8af" d="m331.22076 99.758446l0 0c0 -7.814232 6.3346863 -14.148926 14.148926 -14.148926l0 0c3.752533 0 7.351349 1.4906921 10.004791 4.144127c2.6534424 2.6534424 4.1441345 6.2522736 4.1441345 10.004799l0 0c0 7.8142395 -6.3346863 14.148926 -14.148926 14.148926l0 0c-7.8142395 0 -14.148926 -6.3346863 -14.148926 -14.148926z" fill-rule="nonzero"></path><path fill="#000000" fill-opacity="0.0" d="m325.8213 77.48294l42.36133 0l0 24.928474l-42.36133 0z" fill-rule="nonzero"></path><path fill="#000000" d="m339.1963 96.74919l0 3.28125q0 0.8125 0.09375 1.015625q0.09375 0.203125 0.34375 0.359375q0.265625 0.140625 0.71875 0.140625l0.34375 0l0 0.296875l-5.53125 0l0 -0.296875l0.34375 0q0.46875 0 0.75 -0.15625q0.203125 -0.109375 0.3125 -0.375q0.078125 -0.1875 0.078125 -0.984375l0 -6.96875q0 -0.8125 -0.09375 -1.015625q-0.078125 -0.203125 -0.34375 -0.359375q-0.25 -0.15625 -0.703125 -0.15625l-0.34375 0l0 -0.28125l5.53125 0l0 0.28125l-0.34375 0q-0.46875 0 -0.75 0.171875q-0.203125 0.109375 -0.3125 0.375q-0.09375 0.1875 -0.09375 0.984375l0 3.0l3.75 0l0 -3.0q0 -0.8125 -0.09375 -1.015625q-0.078125 -0.203125 -0.34375 -0.359375q-0.265625 -0.15625 -0.71875 -0.15625l-0.34375 0l0 -0.28125l5.53125 0l0 0.28125l-0.34375 0q-0.46875 0 -0.734375 0.171875q-0.203125 0.109375 -0.328125 0.375q-0.078125 0.1875 -0.078125 0.984375l0 6.96875q0 0.8125 0.078125 1.015625q0.09375 0.203125 0.359375 0.359375q0.265625 0.140625 0.703125 0.140625l0.34375 0l0 0.296875l-5.53125 0l0 -0.296875l0.34375 0q0.46875 0 0.75 -0.15625q0.203125 -0.109375 0.3125 -0.375q0.09375 -0.1875 0.09375 -0.984375l0 -3.28125l-3.75 0z" fill-rule="nonzero"></path><path fill="#000000" d="m352.43848 100.38982l0.046875 2.4375l-0.21875 0q-0.15625 -0.921875 -0.765625 -1.46875q-0.609375 -0.5625 -1.3125 -0.5625q-0.546875 0 -0.875 0.296875q-0.3125 0.28125 -0.3125 0.671875q0 0.234375 0.109375 0.421875q0.15625 0.265625 0.5 0.5q0.25 0.1875 1.171875 0.640625q1.28125 0.625 1.71875 1.1875q0.4375 0.546875 0.4375 1.265625q0 0.921875 -0.71875 1.578125q-0.703125 0.65625 -1.796875 0.65625q-0.34375 0 -0.65625 -0.078125q-0.296875 -0.0625 -0.765625 -0.25q-0.25 -0.109375 -0.421875 -0.109375q-0.140625 0 -0.296875 0.109375q-0.15625 0.109375 -0.25 0.328125l-0.203125 0l0 -2.75l0.203125 0q0.234375 1.15625 0.90625 1.765625q0.6875 0.609375 1.453125 0.609375q0.609375 0 0.96875 -0.328125q0.359375 -0.328125 0.359375 -0.765625q0 -0.25 -0.140625 -0.484375q-0.140625 -0.25 -0.421875 -0.46875q-0.28125 -0.21875 -0.984375 -0.5625q-1.0 -0.5 -1.4375 -0.84375q-0.421875 -0.34375 -0.65625 -0.765625q-0.234375 -0.421875 -0.234375 -0.9375q0 -0.859375 0.640625 -1.46875q0.640625 -0.625 1.609375 -0.625q0.359375 0 0.6875 0.09375q0.25 0.0625 0.609375 0.234375q0.359375 0.171875 0.515625 0.171875q0.140625 0 0.21875 -0.078125q0.078125 -0.09375 0.140625 -0.421875l0.171875 0z" fill-rule="nonzero"></path></g></svg>

